<svg
	xmlns="http://www.w3.org/2000/svg"
	width="500"
	height="250"
	viewBox="0 0 500 250"
	version="1.1">
	
	<g transform="matrix(1,0,0,1,0, 0)">
		<g class="title" transform="translate(5.5,0)">
			<path
				d="m 114.59367,18.440552 q -1.59302,9.39331 -2.03247,55.096435 l 0,6.097412 q 0,13.458252 0.54932,29.223631 l 0,5.5481 q 3.73535,0.54931 5.87768,0.21972 0.76905,0 0.76905,0.65918 0.21972,0.76905 -0.54932,0.76905 -1.64795,0.21972 -2.63672,0.21972 -0.98877,0 -4.61426,-0.43945 -3.62548,-0.43945 -4.77905,-0.32959 -1.2085,0.10986 -1.26343,-0.54932 0,-0.76904 0.71411,-0.76904 2.36207,-0.32959 4.94385,0.10986 l 0,-5.32836 q -0.43945,-19.116216 -0.43945,-29.333501 l 0,-6.097412 q 0,-21.42334 0.38452,-29.992676 0.38452,-8.569336 0.60425,-14.501953 0.21973,-5.932617 0.98877,-10.601806 -2.80152,0.219726 -4.11987,0.549316 l -0.21973,0 q -0.65918,0 -0.71411,-0.549316 -0.21973,-0.65918 0.49438,-0.933838 2.03247,-0.549317 5.21851,-0.494385 3.1311,0.05493 4.55932,0 1.42823,-0.05493 1.42823,0.714111 0.21972,0.549317 -0.65918,0.823975 -2.14234,0 -3.24097,-0.109863 l -1.26343,0 z"
			/>
			<path
				d="m 129.64494,58.705444 q 0.76905,0 0.76905,0.219727 0.54931,3.845214 1.09863,10.217285 2.14233,26.312256 6.20727,41.748044 0.32959,1.37329 1.0437,1.70288 0.76905,0 1.59302,-1.53808 0.82398,-1.53809 1.92261,-13.348391 1.09863,-11.810303 1.53809,-14.776611 0.43945,-2.966309 1.59301,-11.425782 1.09864,-8.459472 1.75782,-12.469482 0.0549,-0.219727 0.82397,-0.219727 0.76904,0 0.76904,0.219727 -1.53808,4.119873 -2.0874,10.38208 -0.49438,6.207275 -1.0437,9.393311 -0.54932,3.186035 -1.48315,12.634277 -1.09864,15.600588 -3.51563,22.192378 -0.60425,1.64795 -1.86768,1.75782 -1.26342,-0.43946 -2.69165,-6.75659 -3.84521,-18.566899 -5.98754,-38.0127 -0.76905,-9.448242 -1.3733,-11.920166 l 0.93384,0 z"
			/>
			<path
				d="m 174.41423,66.6156 0,-1.593017 q 0,-4.724121 -1.64795,-5.328369 -2.80151,-0.878907 -5.32837,-0.32959 -6.09741,2.142334 -6.75659,7.525635 -0.49439,2.471923 -1.26343,6.866455 -0.76904,4.394531 -0.82397,5.657959 -0.0549,1.263427 -0.32959,3.460693 -0.27466,2.197266 0.0549,5.383301 0.32959,3.076172 0.60425,6.152343 1.37329,15.38086 3.1311,16.91895 2.41699,2.03247 6.04248,0.21972 3.62549,-1.81274 4.5044,-4.1748 1.64794,-4.39453 1.42822,-6.427 -0.1648,-2.087407 0.16479,-6.976323 0.32959,-4.833984 0.1648,-10.217285 -0.1648,-5.383301 -0.0549,-10.601806 0.10986,-5.218506 0.10986,-6.536866 z m 0.98877,27.191162 q 0,12.249758 1.59302,14.666748 1.59301,2.41699 2.85644,2.85645 1.26343,0.43945 2.74658,0.49438 l 0.71411,2.36206 q -2.52685,1.26343 -3.79028,-0.21973 -2.74658,-2.74658 -3.62549,-4.22973 -0.93383,-1.53809 -1.0437,-1.64795 -0.76904,0.76904 -3.1311,3.35083 -2.36206,2.58179 -4.17481,3.18603 -1.81274,0.54932 -3.57055,0.60425 -1.75782,0.0549 -3.35083,-1.48315 -3.73535,-3.73535 -3.4607,-31.091311 0.1648,-7.250976 1.81275,-13.293457 1.64795,-6.04248 2.30713,-7.03125 0.65918,-0.988769 3.07617,-2.581787 2.41699,-1.538086 5.76782,-1.593017 3.35083,-0.05493 5.16358,1.757812 1.15356,3.790283 1.15356,7.415772 l 0,5.273437 -0.32959,8.843994 Q 175.403,91.774292 175.403,93.806762 Z"
			/>
			<path
				d="m 194.46428,115.06531 q -1.09863,0.43945 -1.64795,0.43945 -0.54932,0 -0.60425,-0.32959 0.21973,-1.70288 0.1648,-6.15234 -0.0549,-4.44947 0.16479,-7.41577 0.21973,-2.966313 -0.0549,-11.535649 -0.27466,-8.569336 0.0549,-12.908936 l 0.71411,-11.700439 q 0,-1.702881 -0.10986,-5.877686 l -0.1648,0 q -0.54931,0 -2.69165,2.362061 -0.32959,0 -0.65918,-0.32959 -0.32959,-0.32959 -0.21972,-0.65918 3.40576,-3.625488 4.28467,-2.252197 0.8789,1.373291 0.76904,6.042481 1.0437,-1.812745 1.70288,-2.471924 0.65918,-0.65918 0.98877,-1.043701 0.38452,-0.384522 0.93384,-0.714112 0.54931,-0.274658 0.8789,-0.494385 l 0.98877,-0.604248 q 0.65918,-0.384521 0.93384,-0.494384 2.14233,-1.263428 4.1748,0.659179 2.03248,1.922608 2.19727,4.779053 0.1648,2.911377 0.27466,8.294678 0.10986,5.383301 0.27466,9.448242 0.16479,4.064941 0,15.930176 -0.1648,11.755371 0.27465,17.138671 -0.10986,0.21973 -1.09863,0.27466 -0.98877,0.0549 -1.0437,-0.1648 0.10986,-2.58178 0.60425,-11.75537 0.49438,-9.173581 0.21973,-15.106198 -0.27466,-5.877686 -0.10987,-12.524414 0.1648,-6.646729 -0.21972,-10.052491 -0.38453,-3.405761 -1.97754,-5.438232 -1.42823,-0.98877 -2.14234,-0.823975 -0.65918,0.109864 -0.98877,0.109864 -0.32959,0 -1.26342,0.769043 -0.87891,0.769043 -1.75782,1.428222 -1.9226,1.593018 -3.02124,4.229737 -1.09863,2.636718 -1.48315,16.534423 -0.10986,2.691651 0.16479,11.151123 0.27466,8.459478 -0.10986,11.425778 -0.38452,2.96631 0.60425,9.83277 z"
			/>
			<path
				d="m 250.29988,18.440552 q -1.59302,9.39331 -2.03247,55.096435 l 0,6.097412 q 0,13.458252 0.54932,29.223631 l 0,5.5481 q 3.73535,0.54931 5.87768,0.21972 0.76904,0 0.76904,0.65918 0.21973,0.76905 -0.54931,0.76905 -1.64795,0.21972 -2.63672,0.21972 -0.98877,0 -4.61426,-0.43945 -3.62549,-0.43945 -4.77905,-0.32959 -1.2085,0.10986 -1.26343,-0.54932 0,-0.76904 0.71411,-0.76904 2.36206,-0.32959 4.94385,0.10986 l 0,-5.32836 q -0.43945,-19.116216 -0.43945,-29.333501 l 0,-6.097412 q 0,-21.42334 0.38452,-29.992676 0.38452,-8.569336 0.60425,-14.501953 0.21972,-5.932617 0.98877,-10.601806 -2.80152,0.219726 -4.11988,0.549316 l -0.21972,0 q -0.65918,0 -0.71412,-0.549316 -0.21972,-0.65918 0.49439,-0.933838 2.03247,-0.549317 5.21851,-0.494385 3.1311,0.05493 4.55932,0 1.42822,-0.05493 1.42822,0.714111 0.21973,0.549317 -0.65918,0.823975 -2.14233,0 -3.24096,-0.109863 l -1.26343,0 z"
			/>
			<path
				d="m 265.35115,58.705444 q 0.76904,0 0.76904,0.219727 0.54932,3.845214 1.09864,10.217285 2.14233,26.312256 6.20727,41.748044 0.32959,1.37329 1.0437,1.70288 0.76904,0 1.59302,-1.53808 0.82397,-1.53809 1.92261,-13.348391 1.09863,-11.810303 1.53808,-14.776611 0.43946,-2.966309 1.59302,-11.425782 1.09863,-8.459472 1.75781,-12.469482 0.0549,-0.219727 0.82398,-0.219727 0.76904,0 0.76904,0.219727 -1.53809,4.119873 -2.0874,10.38208 -0.49439,6.207275 -1.0437,9.393311 -0.54932,3.186035 -1.48316,12.634277 -1.09863,15.600588 -3.51562,22.192378 -0.60425,1.64795 -1.86768,1.75782 -1.26343,-0.43946 -2.69165,-6.75659 -3.84521,-18.566899 -5.98755,-38.0127 -0.76904,-9.448242 -1.37329,-11.920166 l 0.93384,0 z"
			/>
			<path
				d="m 310.12044,66.6156 0,-1.593017 q 0,-4.724121 -1.64795,-5.328369 -2.80152,-0.878907 -5.32837,-0.32959 -6.09741,2.142334 -6.75659,7.525635 -0.49439,2.471923 -1.26343,6.866455 -0.76904,4.394531 -0.82398,5.657959 -0.0549,1.263427 -0.32959,3.460693 -0.27465,2.197266 0.0549,5.383301 0.32959,3.076172 0.60424,6.152343 1.37329,15.38086 3.13111,16.91895 2.41699,2.03247 6.04248,0.21972 3.62549,-1.81274 4.50439,-4.1748 1.64795,-4.39453 1.42822,-6.427 -0.16479,-2.087407 0.1648,-6.976323 0.32959,-4.833984 0.16479,-10.217285 -0.16479,-5.383301 -0.0549,-10.601806 0.10987,-5.218506 0.10987,-6.536866 z m 0.98877,27.191162 q 0,12.249758 1.59301,14.666748 1.59302,2.41699 2.85645,2.85645 1.26343,0.43945 2.74658,0.49438 l 0.71411,2.36206 q -2.52685,1.26343 -3.79028,-0.21973 -2.74658,-2.74658 -3.62549,-4.22973 -0.93384,-1.53809 -1.0437,-1.64795 -0.76904,0.76904 -3.1311,3.35083 -2.36206,2.58179 -4.17481,3.18603 -1.81274,0.54932 -3.57056,0.60425 -1.75781,0.0549 -3.35083,-1.48315 -3.73535,-3.73535 -3.46069,-31.091311 0.1648,-7.250976 1.81275,-13.293457 1.64794,-6.04248 2.30712,-7.03125 0.65918,-0.988769 3.07618,-2.581787 2.41699,-1.538086 5.76782,-1.593017 3.35083,-0.05493 5.16357,1.757812 1.15357,3.790283 1.15357,7.415772 l 0,5.273437 -0.32959,8.843994 q -0.71411,10.327149 -0.71411,12.359619 z"
			/>
			<path
				d="m 330.17049,115.06531 q -1.09864,0.43945 -1.64795,0.43945 -0.54932,0 -0.60425,-0.32959 0.21972,-1.70288 0.16479,-6.15234 -0.0549,-4.44947 0.1648,-7.41577 0.21972,-2.966313 -0.0549,-11.535649 -0.27466,-8.569336 0.0549,-12.908936 l 0.71411,-11.700439 q 0,-1.702881 -0.10986,-5.877686 l -0.1648,0 q -0.54932,0 -2.69165,2.362061 -0.32959,0 -0.65918,-0.32959 -0.32959,-0.32959 -0.21973,-0.65918 3.40577,-3.625488 4.28467,-2.252197 0.87891,1.373291 0.76905,6.042481 1.0437,-1.812745 1.70288,-2.471924 0.65918,-0.65918 0.98877,-1.043701 0.38452,-0.384522 0.93383,-0.714112 0.54932,-0.274658 0.87891,-0.494385 l 0.98877,-0.604248 q 0.65918,-0.384521 0.93384,-0.494384 2.14233,-1.263428 4.1748,0.659179 2.03247,1.922608 2.19727,4.779053 0.16479,2.911377 0.27466,8.294678 0.10986,5.383301 0.27465,9.448242 0.1648,4.064941 0,15.930176 -0.16479,11.755371 0.27466,17.138671 -0.10986,0.21973 -1.09863,0.27466 -0.98877,0.0549 -1.0437,-0.1648 0.10986,-2.58178 0.60425,-11.75537 0.49438,-9.173581 0.21972,-15.106198 -0.27466,-5.877686 -0.10986,-12.524414 0.16479,-6.646729 -0.21973,-10.052491 -0.38452,-3.405761 -1.97754,-5.438232 -1.42822,-0.98877 -2.14233,-0.823975 -0.65918,0.109864 -0.98877,0.109864 -0.32959,0 -1.26343,0.769043 -0.8789,0.769043 -1.75781,1.428222 -1.92261,1.593018 -3.02124,4.229737 -1.09863,2.636718 -1.48315,16.534423 -0.10987,2.691651 0.16479,11.151123 0.27466,8.459478 -0.10986,11.425778 -0.38452,2.96631 0.60425,9.83277 z"
			/>
			<path
				d="m 365.38167,103.69446 0,-2.80152 q 0.8789,-21.917721 0.93383,-24.444576 l 0.21973,-7.305908 q 0,-1.593018 -0.10986,-3.131104 -0.21973,-7.196045 -7.69043,-7.196045 -1.53809,0.219727 -3.18604,2.087403 -1.64795,1.867675 -1.97754,4.779052 -1.31836,11.151123 -0.76904,28.729248 0.54932,17.57813 1.92261,18.18237 6.31714,4.83399 9.5581,-1.0437 1.09864,-2.19726 1.09864,-7.85522 z m 2.58178,-34.002688 0,2.032471 q -0.21972,11.151123 -0.43945,14.007568 -0.21973,2.856446 -0.32959,10.876465 -0.10986,8.020024 -0.71411,11.975094 -1.31836,8.51441 -7.74536,8.29468 -6.09741,-0.10986 -6.48194,-8.89892 -0.38452,-11.151127 -0.49438,-11.151127 0.32959,-4.284668 -0.10986,-13.073731 -0.43946,-8.789062 0.10986,-14.941406 0.21973,-6.207275 4.50439,-9.997559 1.59302,-1.483154 4.44947,-1.373291 2.85644,0.109864 4.3396,1.812744 2.91137,3.405762 2.91137,10.437012 z"
			/>
			<path
				d="m 375.65388,58.705444 q 0.76905,0 0.76905,0.219727 0.54931,3.845214 1.09863,10.217285 2.14233,26.312256 6.20727,41.748044 0.32959,1.37329 1.04371,1.70288 0.76904,0 1.59301,-1.53808 0.82398,-1.53809 1.92261,-13.348391 1.09863,-11.810303 1.53809,-14.776611 0.43945,-2.966309 1.59301,-11.425782 1.09864,-8.459472 1.75782,-12.469482 0.0549,-0.219727 0.82397,-0.219727 0.76904,0 0.76904,0.219727 -1.53808,4.119873 -2.0874,10.38208 -0.49438,6.207275 -1.0437,9.393311 -0.54932,3.186035 -1.48315,12.634277 -1.09864,15.600588 -3.51563,22.192378 -0.60425,1.64795 -1.86767,1.75782 -1.26343,-0.43946 -2.69165,-6.75659 -3.84522,-18.566899 -5.98755,-38.0127 -0.76905,-9.448242 -1.37329,-11.920166 l 0.93383,0 z"
			/>
		</g>
		<g class="subtitle" transform="translate(19.863014,-0.55553006)">
			<path
				d="m 179.94531,143.61365 q -1.09863,0 -1.80664,1.63574 -1.24512,3.2959 -1.2207,7.32422 0.0244,4.02832 -0.36621,12.86621 -0.39063,8.83789 -0.12207,12.37793 0,2.53906 0.19531,4.58984 0.24414,2.85645 1.9043,3.61328 1.34277,-0.39062 1.75781,-3.14941 0.61035,-5.05371 0.65918,-7.39746 0.0488,-2.34375 0.41504,-7.61719 0.36621,-5.29785 0.24414,-8.64258 -0.12207,-3.34472 0.8789,-10.64453 0.0488,-0.8789 -0.0977,-1.66015 -0.14649,-0.78125 -0.24414,-1.48926 -0.24414,-1.66016 -2.00196,-1.80664 l -0.19531,0 z m -1.46484,43.09082 q -0.0977,0 -0.0977,-0.0488 -0.92773,-0.39062 -1.51367,-1.2207 -0.58594,-0.83008 -0.83008,-2.02637 -0.24414,-1.19629 -0.26855,-3.68652 -0.0244,-2.49024 -0.0977,-4.93164 -0.0732,-2.44141 0.26856,-10.35157 0.34179,-7.91015 0.31738,-12.01172 -0.0244,-4.12597 1.26953,-7.42187 0.26855,-0.65918 0.5127,-1.04981 0.24414,-0.39062 0.83007,-0.708 0.58594,-0.31739 1.31836,-0.29297 2.39258,0.24414 2.58789,2.41699 0.0977,0.61035 0.24414,1.3916 0.31739,1.68457 -0.14648,3.85742 -0.68359,6.5918 -0.58594,9.27735 0.0977,2.68554 -0.29297,7.95898 -0.39062,5.22461 -0.41504,7.71485 -0.0488,2.49023 -0.708,7.39746 -0.24414,3.19824 -2.29493,3.73535 l -0.0977,0 z"
			/>
			<path
				d="m 187.02539,173.81384 0,-0.61035 q 0.39063,-0.0976 2.46582,-0.0976 0,-0.26856 -0.0977,-2.80762 -0.0977,-2.53906 -0.12207,-2.73438 0.0977,-1.70898 0.0488,-6.90918 -0.0488,-5.20019 0,-6.17675 0.0488,-0.97657 0.0977,-1.83106 0.0488,-1.3916 0.19531,-2.29492 0.31738,-1.9043 1.97754,-2.68555 1.75781,-0.90332 3.02734,-0.24414 1.26954,0.65918 1.46485,2.63672 0.0488,2.39258 0,4.58984 -0.0488,2.19727 0.0488,3.14942 0,0.0977 -0.24414,0.24414 -0.24415,0.14648 -0.31739,-0.1709 0.0977,-1.53809 0,-3.10059 -0.0977,-1.5625 -0.0977,-2.46582 l 0.0488,-1.24511 q 0,-2.49024 -1.24511,-3.07617 -0.87891,-0.39063 -1.83106,0 -0.92773,0.36621 -1.3916,0.8789 -0.46387,0.5127 -0.63476,1.61133 -0.19532,1.07422 -0.24415,1.51367 -0.0488,0.43945 -0.12207,1.80664 -0.0732,1.36719 -0.12207,2.92969 -0.0488,1.5625 0.12207,3.34473 0.1709,1.80664 0.0244,5.98144 0,0.19531 0.19531,7.05567 l 2.41699,0 q 0.0977,0 0.1709,0.29296 0.0732,0.29297 -0.21973,0.36622 l -2.36816,0.0488 0.0977,13.69629 q -0.80567,0.14649 -0.83008,-0.19531 0,-0.3418 0.0488,-6.29883 0.0488,-5.95703 -0.0977,-7.20215 l -2.46582,0 z"
			/>
			<path
				d="m 198.93945,173.81384 0,-0.61035 q 0.39063,-0.0976 2.46582,-0.0976 0,-0.26856 -0.0977,-2.80762 -0.0977,-2.53906 -0.12207,-2.73438 0.0976,-1.70898 0.0488,-6.90918 -0.0488,-5.20019 0,-6.17675 0.0488,-0.97657 0.0977,-1.83106 0.0488,-1.3916 0.19531,-2.29492 0.31739,-1.9043 1.97754,-2.68555 1.75782,-0.90332 3.02735,-0.24414 1.26953,0.65918 1.46484,2.63672 0.0488,2.39258 0,4.58984 -0.0488,2.19727 0.0488,3.14942 0,0.0977 -0.24414,0.24414 -0.24414,0.14648 -0.31739,-0.1709 0.0977,-1.53809 0,-3.10059 -0.0977,-1.5625 -0.0977,-2.46582 l 0.0488,-1.24511 q 0,-2.49024 -1.24512,-3.07617 -0.87891,-0.39063 -1.83106,0 -0.92773,0.36621 -1.3916,0.8789 -0.46386,0.5127 -0.63476,1.61133 -0.19531,1.07422 -0.24414,1.51367 -0.0488,0.43945 -0.12207,1.80664 -0.0733,1.36719 -0.12207,2.92969 -0.0488,1.5625 0.12207,3.34473 0.1709,1.80664 0.0244,5.98144 0,0.19531 0.19531,7.05567 l 2.417,0 q 0.0976,0 0.17089,0.29296 0.0733,0.29297 -0.21972,0.36622 l -2.36817,0.0488 0.0977,13.69629 q -0.80566,0.14649 -0.83008,-0.19531 0,-0.3418 0.0488,-6.29883 0.0488,-5.95703 -0.0977,-7.20215 l -2.46582,0 z"
			/>
			<path
				d="m 210.60937,176.30408 q -0.19531,-3.02735 -0.24414,-6.73828 -0.0488,-3.71094 -0.14648,-6.05469 0.0488,-0.0977 0.29297,-0.0244 0.24414,0.0733 0.3418,0.41504 0.14648,2.2461 0.21972,7.42188 0.0732,5.17578 0.21973,7.42187 0.14648,2.2461 0.12207,7.56836 -0.0244,0.14649 -0.31738,0.24414 -0.29297,0.0977 -0.53711,0.0244 -0.24414,-0.0732 -0.19532,-0.3418 0.0488,-0.26855 0.0977,-5.10254 0.0488,-4.83398 0.14648,-4.83398 z m 0.0488,-18.18848 q 0.19532,0 0.3418,0.48828 0.14648,0.48828 0.0244,0.90332 -0.12207,0.41504 -0.31738,0.5127 -0.65918,-0.14649 -0.70801,-0.75684 0,-0.14648 0.0977,-0.43945 0.19531,-0.70801 0.56152,-0.70801 z"
			/>
			<path
				d="m 223.08496,180.21033 0,-1.14746 -0.0488,-0.61035 q 0.0244,-0.3418 0.31739,-0.26856 0.29296,0.0732 0.39062,0.1709 -0.0488,0.68359 -0.0488,2.29492 0,1.61133 -0.12207,2.97852 -0.12207,1.36718 -0.73242,1.83105 -1.63574,1.44043 -3.34473,1.02539 -1.70898,-0.41504 -2.75879,-2.51465 -0.65918,-1.34277 -0.75683,-2.9541 -0.19531,-7.69043 -0.0488,-13.20801 0.0488,-1.66015 0.70801,-4.90722 0.19531,-0.95215 1.09863,-1.53809 0.90332,-0.58594 2.00195,-0.3418 1.09864,0.19532 1.83106,0.87891 0.73242,0.68359 1.00098,1.29395 0.83007,1.95312 0.83007,2.92968 l -0.0977,2.39258 q 0,0.19531 -0.19532,0.14649 -0.19531,-0.0488 -0.26855,-0.14649 0.0488,-0.85449 0,-1.63574 l -0.0732,-1.17188 q -0.0488,-0.90332 -0.3418,-1.34277 -0.24414,-0.43945 -0.48828,-0.95215 -0.24414,-0.48828 -1.0498,-1.2207 -0.80567,-0.73242 -1.80665,-0.65918 -1.00097,0.0732 -1.58691,1.41602 -0.68359,1.2207 -0.73242,5.27343 -0.0732,4.02832 -0.12207,4.88282 -0.24414,7.6416 0.46387,9.69238 0.24414,0.70801 1.24511,1.83105 1.00098,1.12305 1.95313,1.02539 1.80664,-0.0977 2.19726,-1.19629 0.5127,-1.17187 0.53711,-2.41699 0.0488,-1.24511 0.0488,-1.83105 z"
			/>
			<path
				d="m 228.28516,176.30408 q -0.19532,-3.02735 -0.24414,-6.73828 -0.0488,-3.71094 -0.14649,-6.05469 0.0488,-0.0977 0.29297,-0.0244 0.24414,0.0733 0.3418,0.41504 0.14648,2.2461 0.21972,7.42188 0.0733,5.17578 0.21973,7.42187 0.14648,2.2461 0.12207,7.56836 -0.0244,0.14649 -0.31738,0.24414 -0.29297,0.0977 -0.53711,0.0244 -0.24414,-0.0732 -0.19531,-0.3418 0.0488,-0.26855 0.0976,-5.10254 0.0488,-4.83398 0.14649,-4.83398 z m 0.0488,-18.18848 q 0.19532,0 0.3418,0.48828 0.14649,0.48828 0.0244,0.90332 -0.12208,0.41504 -0.31739,0.5127 -0.65918,-0.14649 -0.70801,-0.75684 0,-0.14648 0.0977,-0.43945 0.19531,-0.70801 0.56152,-0.70801 z"
			/>
			<path
				d="m 240.27246,164.82947 0,-0.70801 q 0,-2.09961 -0.73242,-2.36816 -1.24512,-0.39063 -2.36817,-0.14649 -2.70996,0.95215 -3.00292,3.34473 -0.21973,1.09863 -0.56153,3.05176 -0.3418,1.95312 -0.36621,2.51464 -0.0244,0.56153 -0.14648,1.53809 -0.12207,0.97656 0.0244,2.39258 0.14648,1.36719 0.26856,2.73437 0.61035,6.83594 1.3916,7.51954 1.07422,0.90332 2.68554,0.0977 1.61133,-0.80566 2.00196,-1.85547 0.73242,-1.95312 0.63476,-2.85644 -0.0732,-0.92774 0.0732,-3.10059 0.14649,-2.14844 0.0733,-4.54101 -0.0733,-2.39258 -0.0244,-4.71192 0.0488,-2.31933 0.0488,-2.90527 z m 0.43945,12.08496 q 0,5.44434 0.70801,6.51855 0.70801,1.07422 1.26953,1.26954 0.56153,0.19531 1.22071,0.21972 l 0.31738,1.04981 q -1.12305,0.56152 -1.68457,-0.0977 -1.2207,-1.2207 -1.61133,-1.87988 -0.41504,-0.6836 -0.46387,-0.73242 -0.34179,0.34179 -1.3916,1.48925 -1.0498,1.14746 -1.85547,1.41602 -0.80566,0.24414 -1.58691,0.26855 -0.78125,0.0244 -1.48926,-0.65918 -1.66016,-1.66015 -1.53808,-13.81836 0.0732,-3.22265 0.80566,-5.9082 0.73242,-2.68555 1.02539,-3.125 0.29297,-0.43945 1.36719,-1.14746 1.07422,-0.68359 2.56347,-0.70801 1.48926,-0.0244 2.29493,0.78125 0.51269,1.68457 0.51269,3.2959 l 0,2.34375 -0.14648,3.93067 q -0.31739,4.58984 -0.31739,5.49316 z"
			/>
			<path
				d="m 248.08496,157.50525 0.19531,19.65332 q 0,0.0977 -0.0488,4.54102 -0.0488,4.44335 0.0488,4.56543 l -1.34277,0.19531 q 0.43945,-2.53906 0.58594,-9.91211 0.14648,-7.37305 0,-10.74219 -0.19532,-3.36914 -0.19532,-6.00586 l 0.19532,-9.88769 0.0732,-0.0488 0.63477,0.43945 q 0.0977,0.48828 -0.0244,2.66113 -0.12207,2.14844 -0.12207,4.54102 z"
			/>
			<path
				d="m 260.56055,177.2074 q 0,-0.14649 0.31738,-0.14649 0.31738,0 0.31738,0.14649 l 0,5.20019 q 0,1.70899 0.58594,2.85645 0.58594,1.14746 1.36719,1.2207 0.78125,0.0732 1.58691,-1.07422 0.78125,-1.14746 0.87891,-2.80761 0.48828,-6.5918 0.48828,-10.83985 -0.0977,-3.44238 -1.80664,-6.05469 -0.0732,-0.0488 -0.70801,-0.97656 -0.63477,-0.92773 -0.73242,-1.92871 -0.56152,-4.49219 -0.14649,-15.03906 l 0,-0.56152 q 0,-2.39258 0.58594,-3.34473 0.48828,-0.90332 1.51367,-0.80567 l 0.19532,0 q 1.29394,0.0977 1.70898,0.80567 l 0,0.0977 q 0.56152,2.29493 0.53711,5.76172 0.14648,1.46485 0.14648,3.19825 0,0.24414 -0.31738,0.19531 -0.31738,-0.0488 -0.31738,-0.14649 -0.0977,-1.00097 -0.19531,-4.10156 -0.0733,-3.10058 -0.46387,-4.71191 -0.24414,-0.3418 -1.09863,-0.43946 l -0.24414,0 q -1.36719,-0.12207 -1.41602,3.49122 l 0,0.61035 q -0.39063,10.49804 0.1709,14.89257 0.0732,1.0254 1.34277,2.66114 1.9043,2.88086 1.92871,6.49414 0.0244,3.61328 -0.53711,10.79101 -0.14648,1.85547 -1.02539,3.14942 -0.8789,1.29394 -1.97754,1.31836 l -0.0976,0 q -1.14746,-0.0732 -1.87989,-1.3916 -0.73242,-1.31836 -0.708,-3.32032 l 0,-5.20019 z"
			/>
			<path
				d="m 271.25391,176.30408 q -0.19532,-3.02735 -0.24414,-6.73828 -0.0488,-3.71094 -0.14649,-6.05469 0.0488,-0.0977 0.29297,-0.0244 0.24414,0.0733 0.3418,0.41504 0.14648,2.2461 0.21972,7.42188 0.0733,5.17578 0.21973,7.42187 0.14648,2.2461 0.12207,7.56836 -0.0244,0.14649 -0.31738,0.24414 -0.29297,0.0977 -0.53711,0.0244 -0.24414,-0.0732 -0.19531,-0.3418 0.0488,-0.26855 0.0976,-5.10254 0.0488,-4.83398 0.14649,-4.83398 z m 0.0488,-18.18848 q 0.19532,0 0.3418,0.48828 0.14649,0.48828 0.0244,0.90332 -0.12208,0.41504 -0.31739,0.5127 -0.65918,-0.14649 -0.70801,-0.75684 0,-0.14648 0.0977,-0.43945 0.19531,-0.70801 0.56152,-0.70801 z"
			/>
			<path
				d="m 282.67969,162.36365 q -2.90528,0 -2.88086,0.0488 0,11.79199 -0.0977,14.57519 -0.0976,2.7832 0.0244,6.0791 0.12207,3.2959 0.12207,3.51563 0,0.21972 -0.48829,0.21972 -0.48828,0 -0.56152,-0.0488 0,-8.03223 0.39063,-24.34082 -0.19532,0 -1.44043,0.0488 -1.24512,0.0488 -1.70899,0 -0.0488,-0.0488 0,-0.31738 0.0488,-0.26855 0.0977,-0.3418 0.24414,-0.0977 3.10058,-0.0977 l 0.0488,-11.25488 q 0.0244,-0.19532 0.41504,0.0976 0.39063,0.31738 0.39063,0.36621 l -0.29297,10.83985 q 2.29492,0 2.88086,0.0977 l 0,0.5127 z"
			/>
			<path
				d="m 287.53809,173.96033 q 0.39062,0 2.85644,0.0976 2.46582,0.0977 2.88086,0.14649 0.75684,-8.05664 0.0488,-10.49805 -0.39063,-1.36719 -1.02539,-1.75781 -0.63477,-0.39063 -1.92871,-0.3418 -2.34375,0 -2.58789,2.14844 -0.24414,2.49023 -0.24414,10.20508 z m 6.37207,0.12207 q -0.0244,0.21972 -0.0244,0.26855 0,0.0488 -0.0488,0.19532 -0.0488,0.14648 -0.14648,0.14648 -0.0732,-0.0244 -0.21973,0 -0.14648,0.0244 -0.46386,0 -0.31739,-0.0244 -0.6836,-0.0244 l -4.78515,-0.0977 q 0.0488,0.75684 -0.0244,2.41699 -0.0732,1.66016 -0.0976,3.02735 -0.0733,3.75976 0.80566,5.00488 0.61035,0.80566 1.66016,0.68359 3.24707,-0.3418 3.24707,-5.44433 0.34179,-0.3418 0.56152,-0.0488 0.0244,1.19629 -0.41504,2.90527 -0.85449,3.39356 -3.73535,3.39356 -0.90332,0 -1.19629,-0.14649 -0.31738,-0.14648 -0.46387,-0.19531 -0.14648,-0.0488 -0.29297,-0.29297 -0.14648,-0.24414 -0.26855,-0.39062 -0.12207,-0.12208 -0.24414,-1.00098 -0.14649,-0.90332 -0.19531,-1.07422 -0.39063,-7.49512 0.0488,-14.55078 0.0488,-1.44043 0.0244,-2.85645 -0.0244,-1.41601 0.0976,-2.31933 0.12207,-0.90332 0.80567,-1.58692 0.68359,-0.68359 1.66015,-0.90332 0.97657,-0.21972 2.17286,-0.0244 1.19629,0.19531 1.61132,0.92773 0.41504,0.73243 0.65918,3.07618 0.24414,2.34375 0.12207,5.51757 -0.14648,3.17383 -0.17089,3.39356 z"
			/>
		</g>
	</g>
</svg>