<svg
	 xmlns:dc="http://purl.org/dc/elements/1.1/"
	 xmlns:cc="http://creativecommons.org/ns#"
	 xmlns:rdf="http://www.w3.org/1999/02/22-rdf-syntax-ns#"
	 xmlns:svg="http://www.w3.org/2000/svg"
	 xmlns="http://www.w3.org/2000/svg"
	 xmlns:xlink="http://www.w3.org/1999/xlink"
	 xmlns:sodipodi="http://sodipodi.sourceforge.net/DTD/sodipodi-0.dtd"
	 xmlns:inkscape="http://www.inkscape.org/namespaces/inkscape"
	 width="750"
	 height="200"
	 viewBox="0 0 750 200"
	 version="1.1">

	<g transform="translate(0,-852.36216)">
		<g transform="matrix(1.0791465,0,0,5.0087981,-26.475723,757.58912)">
			<path
						 stroke="rgb(254, 26, 2)"
			 stroke-width="1"
			 fill="rgb(237, 115, 97)"
				 d="m 58.40515,35.91174 q -0.08971,5.531875 -4.156382,8.641686 -3.648048,2.780889 -8.83605,2.616428 -7.774527,-0.254167 -12.065469,-0.0598 -0.807354,0.0299 -1.525003,-0.14951 -1.001718,-0.254167 -0.971816,-0.852208 0.0299,-0.463481 0.508334,-0.762502 0.373776,-0.239216 0.642894,-0.239216 0.134559,0 1.569857,0.104657 1.435297,0.104657 1.569856,0.104657 0.313971,0 0.687747,-0.194363 0.463481,-0.254167 0.463481,-0.598041 0,-0.209314 -0.194363,-3.962019 -0.209314,-3.872312 -0.209314,-5.666434 0,-0.672796 0.0299,-1.106375 0.224265,-3.67795 0.134559,-5.472072 -0.0598,-1.136277 -0.926963,-1.196081 -0.837257,-0.04485 -1.883828,0.0598 -1.166179,0.119608 -1.48015,0.119608 -0.224265,0 -0.538237,-0.194363 -0.313971,-0.194363 -0.313971,-0.418628 0.01495,-0.867159 1.046571,-1.255886 0.807355,-0.29902 2.750987,-0.583089 1.62966,-0.224265 2.018387,-0.224265 l 7.654919,-0.194364 q 14.218415,0.254168 14.024052,11.48238 z m -4.455402,-0.01495 q 0,-3.423783 -1.121326,-5.935553 -1.375494,-3.124762 -3.97697,-3.169615 -0.717649,-0.01495 -0.747551,1.838975 -0.0299,1.809072 0.119608,3.797557 0.14951,1.973534 0.104657,3.842411 -0.119608,5.382366 -0.104657,6.399035 0.04485,2.137995 0.852208,2.152946 2.123044,0.0299 3.588244,-3.079909 1.285787,-2.736036 1.285787,-5.845847 z" />
			<path
						 stroke="rgb(254, 26, 2)"
			 stroke-width="1"
			 fill="rgb(237, 115, 97)"
				 d="m 98.33931,25.117107 q 0,0.493384 -1.061522,0.926963 -0.7326,0.29902 -1.480151,0.598041 -0.627943,0.418628 -1.689465,2.018387 -1.659562,2.437015 -3.334076,4.859079 -1.973534,2.915448 -3.109811,4.993639 -0.04485,0.493384 -0.164461,2.392163 -0.07476,1.240934 -0.07476,2.272554 0,0.642894 0.0598,0.897061 0.179412,0.7326 1.674513,1.046571 1.330641,0.239216 2.676232,0.478432 1.390444,0.388727 1.390444,1.330641 0,0.269118 -0.463481,0.463481 -0.373775,0.164461 -0.687747,0.164461 -0.493383,0 -1.33064,-0.07475 -0.986767,-0.08971 -1.315689,-0.104657 -5.875749,-0.269118 -9.150021,-0.269118 -2.64633,0 -5.457121,0.224265 -2.990203,0.239216 -3.274272,0.239216 -1.076473,0 -1.076473,-1.001718 0,-0.762501 1.420346,-1.016669 1.330641,-0.209314 2.661281,-0.418628 1.420346,-0.373775 1.420346,-1.420346 0,-0.568139 -0.0299,-1.734318 -0.01495,-1.18113 -0.01495,-1.749269 0,-1.211032 -0.0299,-1.689465 -0.01495,-0.254167 -2.347309,-4.784324 -2.21275,-4.335795 -2.765938,-5.277709 -0.837257,-1.450248 -1.749269,-1.719366 -0.941914,-0.164461 -1.868876,-0.343874 -1.181131,-0.29902 -1.181131,-1.196081 0,-0.284069 0.388727,-0.553187 0.403677,-0.28407 0.687746,-0.28407 1.001718,0 3.005154,0.119608 2.018387,0.119609 3.020105,0.119609 1.091425,0 3.259322,-0.01495 2.182848,-0.0299 3.274272,-0.0299 0.837257,0 2.496819,-0.08971 1.674514,-0.08971 2.511771,-0.08971 1.420346,0 1.420346,0.88211 0,0.762502 -1.91373,1.211032 -0.762501,0.179413 -0.762501,0.358825 0,0.0598 0.343873,0.837257 2.736036,6.204671 3.304174,6.204671 1.046571,0 2.152946,-2.79584 0.986767,-2.466917 0.986767,-3.782607 0,-0.926963 -1.435297,-1.076473 -1.420346,-0.14951 -1.420346,-0.897061 0,-0.912012 1.525003,-0.912012 0.568139,0 1.689465,0.0598 1.136277,0.05981 1.704416,0.05981 1.77917,0 2.930398,-0.05981 2.003436,-0.104657 1.973534,-0.104657 1.211033,0 1.211033,0.7326 z" />
			<path
						 stroke="rgb(254, 26, 2)"
			 stroke-width="1"
			 fill="rgb(237, 115, 97)"
				 d="m 135.70189,25.01245 q 0,0.912012 -1.24093,1.18113 -1.15123,0.164461 -2.30246,0.313971 -1.24093,0.239217 -1.24093,1.046572 0,0.553187 0.0897,1.599758 0.0897,1.03162 0.0897,1.584808 0,3.319125 -0.46348,15.534104 -0.0299,0.598041 -0.41863,1.151228 -0.41863,0.612992 -0.98677,0.612992 -1.10637,0 -7.83433,-5.367414 -6.71301,-5.382366 -6.92232,-5.382366 -0.37378,0 -0.37378,0.687747 0,1.868877 0.80736,3.737754 0.91201,2.108093 2.36226,2.915448 0.0299,0.01495 2.10809,0.627942 1.4652,0.43358 1.4652,1.046571 0,0.343874 -0.37377,0.627943 -0.35883,0.269118 -0.7027,0.269118 -1.00172,0 -2.9902,-0.04485 -1.98849,-0.04485 -2.99021,-0.04485 -0.94191,0 -2.84069,0.08971 -1.88383,0.104657 -2.82574,0.104657 -1.19608,0 -1.19608,-0.672795 0,-0.852208 1.59976,-1.181131 2.1978,-0.433579 2.27255,-0.478432 0.56814,-0.328922 0.7625,-1.584808 0.43358,-2.900497 0.43358,-7.041928 0,-4.604912 -0.64289,-8.193156 -0.0748,-0.403677 -0.61299,-0.897061 -0.52329,-0.508334 -0.92697,-0.538236 0.23922,0.01495 -2.46691,0.01495 -0.43358,0 -0.91202,-0.194364 -0.59804,-0.239216 -0.59804,-0.59804 0,-1.390444 2.12305,-1.390444 1.58481,0 4.73947,-0.01495 3.16961,-0.0299 4.75442,-0.0299 0.34388,0 0.62794,0.05981 0.95687,0.209314 5.32257,3.812508 4.29094,3.558342 4.4255,3.558342 0.38872,0 0.38872,-0.687747 0,-1.121326 -0.89706,-2.437015 -0.80735,-1.196081 -1.85392,-1.883828 -0.46349,-0.29902 -1.30074,-0.463482 -0.97182,-0.179412 -1.31569,-0.328922 -0.58309,-0.254167 -0.58309,-0.852208 0,-0.717648 1.10637,-0.702697 3.42379,0.0299 3.87232,0.0299 1.48015,0 3.85736,-0.194364 1.94363,-0.164461 3.87231,-0.328922 0.29902,-0.01495 0.50834,0.313971 0.22426,0.313972 0.22426,0.612992 z" />
			<path
						 stroke="rgb(254, 26, 2)"
			 stroke-width="1"
			 fill="rgb(237, 115, 97)"
				 d="m 175.60615,46.257842 q 0,1.196081 -1.27084,1.196081 -1.51005,0 -4.5152,-0.194363 -3.00516,-0.179412 -4.51521,-0.179412 -1.59976,0 -4.81423,0.119608 -3.21446,0.134559 -4.81422,0.134559 -1.56986,0 -1.56986,-0.747551 0,-0.627942 0.98677,-0.867158 0.91201,-0.179413 1.82402,-0.358825 0.98677,-0.284069 1.00172,-1.061522 0.015,-1.495101 -1.83898,-1.928681 -0.86715,-0.209314 -3.24437,-0.194363 l -3.0201,0.0299 q -1.42035,0.01495 -1.42035,1.76422 0,0.418628 0.11961,1.270836 0.13456,0.852208 0.13456,1.270836 0,0.717649 -1.22598,0.717649 -0.7326,0 -3.25932,-1.465199 -2.60148,-1.510053 -2.60148,-2.078191 0,-0.971816 0.86716,-0.971816 0.56814,0 1.09142,0.29902 0.26912,0.14951 0.77745,0.583089 0.38873,0.313972 0.53824,0.313972 0.98677,0 1.82402,-2.093142 1.64462,-4.066676 5.35247,-9.792915 1.00172,-1.539955 3.663,-4.679668 3.13971,-3.6929 3.88726,-3.6929 0.94191,0 3.64805,3.722802 2.21275,3.035056 3.15466,4.829178 1.27084,2.451967 2.91545,6.742908 0.49338,1.62966 1.00172,3.274272 0.74755,2.332358 1.42034,2.810791 0.20932,0.14951 2.22771,0.358824 1.67451,0.179412 1.67451,0.867159 z m -20.19882,-8.118401 q -1.91373,-2.855644 -2.51177,-2.855644 -0.56814,0 -1.74927,1.988485 -1.15123,1.928681 -1.15123,2.601477 0,0.44853 1.80907,0.493383 1.09143,-0.0299 2.1978,-0.04485 0.37378,0.0299 0.7326,0.0598 0.7027,0.04485 1.10638,0 0.55319,-0.07475 0.53823,-0.313971 -0.0448,-0.553188 -0.97181,-1.928681 z" />
			<path
						 stroke="rgb(254, 26, 2)"
			 stroke-width="1"
			 fill="rgb(237, 115, 97)"
				 d="m 227.3217,46.646569 q 0,0.672795 -1.48015,0.672795 -1.40539,0 -4.24608,-0.119608 -2.82575,-0.119608 -4.24609,-0.119608 -0.91201,0 -1.71937,0.0299 -3.76765,0.0598 -11.33287,0.269118 -0.29902,0.01495 -0.61299,-0.14951 -0.37378,-0.179412 -0.37378,-0.463481 0,-0.717649 0.7027,-0.956865 0.22427,-0.07475 1.31569,-0.209315 0.22427,-0.0299 2.31741,-0.239216 0.41863,-0.04485 0.85221,-0.328922 0.55318,-0.358824 0.55318,-0.867159 0,-0.926963 -0.62794,-5.113247 -0.23921,-1.569857 -0.40368,-1.569857 -0.29902,0 -4.08162,5.038492 -3.78261,5.038492 -4.29094,5.038492 -0.613,0 -4.93384,-4.784324 -4.32084,-4.799276 -4.87403,-4.799276 -0.53824,0 -0.53824,0.702698 0,2.556623 1.31569,4.395598 1.4054,1.973534 3.82746,2.407113 1.27084,0.224266 1.27084,1.03162 0,0.762502 -1.37549,0.762502 -0.98677,0 -2.97526,-0.104657 -1.97353,-0.08971 -2.9603,-0.08971 -0.91201,0 -2.88554,0.254167 -1.95859,0.254167 -2.85565,0.254167 -1.30074,0 -1.30074,-0.807354 0,-0.672796 1.28579,-0.971816 1.18113,-0.209315 2.8706,-0.687747 0.8223,-0.463481 1.27083,-5.711288 0.29902,-3.573292 0.29902,-6.563495 0,-6.384084 -2.70613,-6.384084 -0.38873,0 -1.12133,-0.04485 -0.71764,-0.0598 -1.10637,-0.0598 -0.31397,0 -0.74755,-0.29902 -0.43358,-0.29902 -0.43358,-0.598041 0,-1.076473 1.4951,-1.166179 1.15123,-0.07475 3.15466,0.01495 2.48187,0.119608 3.19952,0.119608 0.65785,0 1.97354,-0.04485 1.31568,-0.04485 1.97353,-0.04485 0.46348,0 0.7027,0.01495 1.33064,0.08971 4.20123,3.22942 1.85393,2.033338 4.72452,5.800993 2.36226,3.109811 2.45197,3.109811 0.37377,0 1.76422,-1.838974 0.80735,-1.136278 1.61471,-2.257604 0.17941,-0.239216 4.69462,-6.085063 1.4652,-1.898779 2.88554,-1.898779 0.6429,0 1.92868,0.04485 1.28579,0.0299 1.92869,0.0299 1.01666,0 3.03505,-0.119608 2.03334,-0.134559 3.05001,-0.134559 0.31397,0 0.67279,0.209314 0.41863,0.239217 0.41863,0.523286 0,1.016669 -0.97181,1.166179 -1.52501,0.07475 -3.05001,0.14951 -1.79412,0.164461 -1.70442,1.554906 0.56814,9.179923 0.56814,10.121837 0,0.867159 -0.14951,3.005154 -0.11961,1.809073 -0.0598,2.990203 0.0448,0.88211 1.68946,1.285787 0.17941,0.04485 3.05001,0.463482 0.65784,0.08971 0.82231,0.209314 0.28406,0.179412 0.28406,0.7326 z" />
			<path
						 stroke="rgb(254, 26, 2)"
			 stroke-width="1"
			 fill="rgb(237, 115, 97)"
				 d="m 257.37326,46.437254 q -0.0299,0.897061 -1.18113,0.88211 -3.67795,-0.08971 -9.89757,-0.239216 -2.1978,-0.04485 -6.02526,0.07475 -4.63482,0.14951 -6.01031,0.164461 -0.26912,0 -0.50834,-0.104657 -0.37377,-0.179412 -0.37377,-0.568138 0.0149,-0.58309 0.52328,-0.777453 0.16447,-0.0598 1.21104,-0.209314 0.77745,-0.04485 2.2875,-0.209315 1.97354,-0.284069 1.98849,-1.33064 0.0299,-1.554906 -0.11961,-4.395598 -0.16446,-3.064958 -0.16446,-4.470354 0,-1.495101 0.20931,-6.907369 0.0448,-1.270836 -0.55319,-1.77917 -0.53823,-0.463482 -1.83897,-0.493384 -0.83726,-0.0299 -1.95858,-0.0598 -0.91202,-0.01495 -1.21104,-0.254167 -0.28407,-0.239217 -0.25416,-0.852208 0.0299,-0.642894 1.37549,-0.612992 2.66128,0.07475 5.33751,0.14951 5.1581,0.13456 5.32256,0.13456 7.68483,-0.269119 10.10689,-0.224266 1.24093,0.01495 1.22598,0.702698 -0.0149,0.627943 -0.77745,0.807355 -0.14951,0.04485 -1.67451,0.179412 -1.65957,0.14951 -2.2277,0.433579 -0.65785,0.343874 -0.6728,1.181131 0,0.179412 0.19436,2.631378 0.20932,2.526722 0.20932,4.320844 0,1.554905 -0.16446,4.335794 -0.16447,3.050007 -0.19437,4.350745 -0.0149,1.076473 0.32892,1.4652 0.35883,0.388726 1.3755,0.403677 0.13456,0 1.12132,0.164461 0.98677,0.164461 1.12133,0.164461 1.89878,0.0299 1.86888,0.941914 z" />
			<path
						 stroke="rgb(254, 26, 2)"
			 stroke-width="1"
			 fill="rgb(237, 115, 97)"
				 d="m 286.6922,40.008318 q 0,1.211032 -0.613,2.571574 -2.2875,5.098297 -8.851,5.173052 -12.6336,0.14951 -12.6336,-12.603706 0,-5.262757 3.96201,-8.25296 3.58825,-2.706134 9.01547,-2.706134 1.79412,0 4.27599,0.627943 2.00343,0.508334 2.15294,0.508334 0.79241,0 1.03162,-0.867159 0.23922,-0.867158 0.89706,-0.867158 0.91202,0 0.91202,1.988485 0,1.465199 -0.613,4.604912 -0.7326,3.722803 -1.4652,3.722803 -0.7924,0 -0.7924,-0.612992 0,-0.14951 0.0748,-0.44853 0.0897,-0.299021 0.0897,-0.448531 0,-1.838975 -1.04657,-3.633096 -1.21103,-2.06324 -2.9005,-2.06324 -1.12132,0 -1.74927,2.496819 -0.46348,1.824024 -0.46348,3.453685 0,11.975763 2.54168,11.975763 1.4652,0 2.61642,-1.480151 0.52329,-0.657845 1.56986,-2.736036 0.74755,-1.48015 1.22598,-1.48015 0.76251,0 0.76251,1.076473 z" />
			<path
						 stroke="rgb(254, 26, 2)"
			 stroke-width="1"
			 fill="rgb(237, 115, 97)"
				 d="m 342.92297,46.332597 q 0,0.971816 -1.18113,0.971816 -1.04657,0 -2.97525,-0.08971 -2.1081,-0.08971 -2.99021,-0.104657 -2.33236,-0.0299 -6.20467,-0.0299 -1.16618,0 -3.49854,0.07475 -2.3174,0.07476 -3.48358,0.07476 -1.12133,0 -1.12133,-0.822306 0,-0.732599 0.97182,-0.88211 1.27083,-0.194363 1.67451,-0.612991 0.0299,-0.0299 0.0299,-0.0598 0,-0.642894 -1.12132,-2.242653 -1.16618,-1.659562 -1.76422,-1.659562 -0.7027,0 -2.04829,1.450248 -1.34559,1.450249 -1.34559,2.152946 0,0.852208 2.01838,0.971816 0.71765,0.04485 0.71765,0.777453 0,0.956865 -1.56985,0.956865 -0.26912,0 -0.68775,-0.0299 -0.41863,-0.0299 -0.53824,-0.0299 -0.68774,0 -2.07819,0.0299 -1.39044,0.04485 -2.07819,0.04485 -0.61299,0 -1.83897,0.08971 -1.21104,0.08971 -1.82403,0.08971 -1.19608,0 -1.19608,-0.926963 0,-0.478432 0.59804,-0.837256 0.37378,-0.224266 1.22598,-0.43358 0.91202,-0.209314 1.28579,-0.403677 0.94192,-0.493384 4.32084,-3.050007 3.5733,-2.691183 3.5733,-3.079909 0,-0.194364 -2.18285,-3.767656 -1.83898,-3.020105 -4.17133,-7.385801 -0.65785,-1.225984 -2.06324,-1.584808 -1.82403,-0.463482 -1.82403,-0.88211 0,-0.897061 0.85221,-0.897061 0.91201,0 2.39216,0.0598 1.77917,0.07475 2.39216,0.08971 5.95051,0.119608 9.35934,0.119608 0.64289,0 1.95858,-0.104657 1.31569,-0.119608 1.95859,-0.119608 0.97181,0 0.97181,0.717649 0,0.523285 -1.00172,0.941914 -0.98676,0.418628 -0.98676,0.777453 0,0.358824 1.00172,1.794121 1.01666,1.420347 1.33064,1.420347 0.56813,0 1.5848,-1.300738 1.00172,-1.255886 1.00172,-1.824024 0,-0.7326 -1.00172,-0.852208 -0.64289,-0.07475 -0.8522,-0.179412 -0.41863,-0.194363 -0.41863,-0.762502 0,-0.538237 1.64461,-0.538237 l 2.36226,0 q 0.88211,0 2.15294,-0.104657 1.51006,-0.119608 2.15295,-0.134559 0.37378,-0.01495 1.45025,-0.14951 1.00172,-0.119608 1.4353,-0.119608 0.37377,0 0.65784,0.284069 0.28407,0.269118 0.28407,0.642894 0,0.702698 -0.86716,1.001718 -0.11961,0.04485 -1.45025,0.284069 -1.01667,0.194363 -1.98848,0.822306 -1.01667,0.672796 -3.64805,2.721085 -3.00515,2.347309 -3.05001,2.706133 0.74755,1.255886 2.28751,3.722803 0.77745,1.211032 2.24265,3.97697 1.39045,2.631379 2.27256,3.947068 0.23921,0.343873 2.67623,0.926963 2.21275,0.538236 2.21275,1.360542 z" />
			<path
						 stroke="rgb(254, 26, 2)"
			 stroke-width="1"
			 fill="rgb(237, 115, 97)"
				 d="m 394.35445,46.646569 q 0,0.672795 -1.48015,0.672795 -1.4054,0 -4.24609,-0.119608 -2.82574,-0.119608 -4.24609,-0.119608 -0.91201,0 -1.71936,0.0299 -3.76766,0.0598 -11.33287,0.269118 -0.29902,0.01495 -0.61299,-0.14951 -0.37378,-0.179412 -0.37378,-0.463481 0,-0.717649 0.7027,-0.956865 0.22426,-0.07475 1.31569,-0.209315 0.22426,-0.0299 2.3174,-0.239216 0.41863,-0.04485 0.85221,-0.328922 0.55319,-0.358824 0.55319,-0.867159 0,-0.926963 -0.62794,-5.113247 -0.23922,-1.569857 -0.40368,-1.569857 -0.29902,0 -4.08163,5.038492 -3.7826,5.038492 -4.29094,5.038492 -0.61299,0 -4.93383,-4.784324 -4.32085,-4.799276 -4.87403,-4.799276 -0.53824,0 -0.53824,0.702698 0,2.556623 1.31569,4.395598 1.40539,1.973534 3.82746,2.407113 1.27083,0.224266 1.27083,1.03162 0,0.762502 -1.37549,0.762502 -0.98677,0 -2.97525,-0.104657 -1.97353,-0.08971 -2.9603,-0.08971 -0.91201,0 -2.88555,0.254167 -1.95858,0.254167 -2.85564,0.254167 -1.30074,0 -1.30074,-0.807354 0,-0.672796 1.28579,-0.971816 1.18113,-0.209315 2.87059,-0.687747 0.82231,-0.463481 1.27084,-5.711288 0.29902,-3.573292 0.29902,-6.563495 0,-6.384084 -2.70613,-6.384084 -0.38873,0 -1.12133,-0.04485 -0.71765,-0.0598 -1.10638,-0.0598 -0.31397,0 -0.74755,-0.29902 -0.43358,-0.29902 -0.43358,-0.598041 0,-1.076473 1.49511,-1.166179 1.15122,-0.07475 3.15466,0.01495 2.48187,0.119608 3.19952,0.119608 0.65784,0 1.97353,-0.04485 1.31569,-0.04485 1.97353,-0.04485 0.46349,0 0.7027,0.01495 1.33064,0.08971 4.20124,3.22942 1.85392,2.033338 4.72452,5.800993 2.36226,3.109811 2.45196,3.109811 0.37378,0 1.76422,-1.838974 0.80736,-1.136278 1.61471,-2.257604 0.17942,-0.239216 4.69462,-6.085063 1.4652,-1.898779 2.88555,-1.898779 0.64289,0 1.92868,0.04485 1.28579,0.0299 1.92868,0.0299 1.01667,0 3.03506,-0.119608 2.03333,-0.134559 3.05,-0.134559 0.31397,0 0.6728,0.209314 0.41863,0.239217 0.41863,0.523286 0,1.016669 -0.97182,1.166179 -1.525,0.07475 -3.05001,0.14951 -1.79412,0.164461 -1.70441,1.554906 0.56814,9.179923 0.56814,10.121837 0,0.867159 -0.14951,3.005154 -0.11961,1.809073 -0.0598,2.990203 0.0449,0.88211 1.68947,1.285787 0.17941,0.04485 3.05,0.463482 0.65785,0.08971 0.82231,0.209314 0.28407,0.179412 0.28407,0.7326 z" />
			<path
						 stroke="rgb(254, 26, 2)"
			 stroke-width="1"
			 fill="rgb(237, 115, 97)"
				 d="m 430.43125,39.126208 q 0,0.29902 -0.41863,3.005154 -0.46348,3.035056 -0.80736,4.470353 -0.0598,0.239217 -0.40367,0.403678 -0.34388,0.164461 -0.58309,0.164461 -1.82403,0 -5.47208,-0.0299 -3.63309,-0.01495 -5.45712,-0.01495 -6.08506,0 -10.12183,0.07476 -0.85221,0.01495 -2.81079,0.119608 -1.76422,0.104657 -2.78089,0.104657 -0.40368,0 -0.86716,-0.194363 -0.58309,-0.239216 -0.58309,-0.612992 0,-0.762501 0.53824,-0.986766 0.0149,0 0.97181,-0.149511 0.7326,-0.01495 2.55663,-0.209314 2.00343,-0.328922 1.95858,-1.584807 -0.10466,-1.794122 -0.26912,-6.17477 -0.0448,-1.659562 0.0897,-5.00859 0.13456,-3.737753 0.13456,-5.023541 0,-0.523285 -0.53824,-0.941914 -0.43358,-0.343873 -0.71765,-0.343873 -2.39216,0 -3.24437,-0.134559 -0.43358,-0.0598 -0.88211,-0.134559 -0.40368,-0.179412 -0.40368,-0.926963 0,-0.284069 0.40368,-0.508335 0.46348,-0.254167 1.18113,-0.254167 1.37549,0 5.51692,0.209314 3.75271,0.194364 4.97869,0.149511 5.60663,-0.224266 7.41571,-0.224266 0.1196,0 1.89877,-0.0299 1.77918,-0.04485 1.89878,-0.04485 1.01667,0 1.01667,0.762502 0,1.076473 -2.13799,1.076473 -0.10466,0 -1.36054,0.179412 -1.25589,0.164461 -1.39045,0.164461 -1.34559,0 -1.27084,0.837257 0.25417,3.020105 0.25417,8.53703 0,1.91373 -0.22426,5.038492 -0.22427,3.109811 -0.22427,3.199517 0,0.642894 0.6429,0.702698 0.20931,0.01495 0.43357,0.01495 1.61471,0 3.10982,-0.747551 1.37549,-0.687747 3.8125,-2.526722 0.58309,-0.418628 1.15123,-0.852207 0.44853,-0.403678 0.80736,-1.345592 0.52328,-1.375493 1.00172,-1.375493 1.19608,0 1.19608,1.166179 z" />
			<path
						 stroke="rgb(254, 26, 2)"
			 stroke-width="1"
			 fill="rgb(237, 115, 97)"
				 d="m 480.50221,40.740918 q 0,2.960301 -3.05,4.814226 -2.64633,1.599759 -5.801,1.599759 l -2.51177,0 q -1.22598,0 -3.21447,-0.0598 -2.16789,-0.0598 -3.21446,-0.0598 -1.31569,0 -3.94707,0.04485 -2.63138,0.04485 -3.94707,0.04485 -2.82574,0 -2.82574,-1.18113 0,-1.106375 1.01667,-1.106375 0.53823,0 1.62966,0.08971 1.09142,0.07475 1.62966,0.07475 0.80735,0 0.80735,-1.240934 l 0,-8.297814 q 0,-1.270836 0.14951,-3.797557 0.16446,-2.526722 0.16446,-3.797558 0,-0.508335 -0.32892,-0.971816 -0.32892,-0.478433 -0.74755,-0.478433 -0.67279,0 -1.86888,0.0598 -1.19608,0.0598 -1.86887,0.0598 -0.83726,0 -0.79241,-0.89706 0.0449,-0.912012 5.48703,-1.151229 1.64461,-0.07475 6.81766,-0.07475 5.2478,0 8.71644,0.941914 5.69634,1.539955 5.69634,5.352464 0,2.137995 -2.12305,4.201235 4.12648,2.691183 4.12648,5.830896 z m -6.42893,-9.299532 q 0,-1.584807 -1.24094,-3.020105 -1.28578,-1.495101 -2.85564,-1.495101 -0.80736,0 -0.80736,1.255885 0,1.629661 0.22427,3.438734 0.31397,2.616427 0.91201,2.765937 0.17941,0.04485 0.64289,0.04485 1.88383,0 2.49682,-0.553187 0.62795,-0.568139 0.62795,-2.437016 z m 1.36054,9.41914 q 0,-1.76422 -1.24094,-3.199517 -1.28578,-1.480151 -3.03505,-1.480151 -1.13628,0 -1.4353,0.702698 -0.14951,0.358824 -0.14951,1.674513 0,0.568139 -0.0448,1.719367 -0.0299,1.136277 -0.0299,1.704416 0,3.064958 1.18113,3.064958 4.75442,0 4.75442,-4.186284 z" />
			<path
						 stroke="rgb(254, 26, 2)"
			 stroke-width="1"
			 fill="rgb(237, 115, 97)"
				 d="m 522.84349,24.534017 q 0.0598,0.956865 -0.86716,1.31569 -0.85221,0.209314 -1.70442,0.403677 -1.24093,0.358825 -1.71936,1.106375 -0.32893,0.538237 -0.56814,2.003436 -0.13456,0.837257 -0.13456,3.67795 0,5.815945 -2.8407,9.942425 -3.21446,4.679668 -8.76129,4.679668 -6.44389,0 -10.40591,-2.885546 -4.4255,-3.214469 -4.72452,-9.463993 -0.0299,-0.627942 -0.0299,-1.285787 0,-0.956865 0.11961,-2.855644 0.11961,-1.898779 0.11961,-2.840693 0,-1.106375 -1.18113,-1.495101 -0.44853,-0.14951 -2.39217,-0.328923 -1.34559,-0.134559 -1.74926,-0.343873 -0.44853,-0.254167 -0.44853,-0.986767 0,-0.837257 1.46519,-0.837257 1.53996,0 4.63482,0.104657 3.10981,0.104658 4.66472,0.104658 0.52328,0 3.70785,-0.0299 2.2576,-0.01495 3.70785,0.01495 0.55319,0.01495 1.56986,-0.0299 1.09142,-0.04485 1.5549,-0.04485 1.31569,0 1.31569,0.702698 0,0.627943 -0.74755,1.001718 -0.59804,0.284069 -1.31569,0.29902 -2.1679,0.0299 -2.1679,1.569857 0,0.941914 0.11961,2.825742 0.13456,1.868877 0.13456,2.810791 0,0.612991 0.0299,1.853925 0.0449,1.240935 0.0449,1.853926 0,2.152946 1.21103,3.902215 1.34559,1.943632 3.36398,1.943632 2.81079,0 4.4554,-2.855644 1.39044,-2.392162 1.39044,-5.442169 0,-2.422065 -0.53823,-4.739472 -0.77746,-3.304174 -2.30246,-3.573292 -0.82231,-0.08971 -1.64461,-0.179413 -1.09143,-0.194363 -1.09143,-0.852207 0,-1.16618 1.4054,-1.16618 l 5.9505,0.01495 q 0.95687,0 2.79584,-0.179412 1.85393,-0.194363 2.78089,-0.194363 0.32893,0 0.79241,0.478432 z" />
			<path
						 stroke="rgb(254, 26, 2)"
			 stroke-width="1"
			 fill="rgb(237, 115, 97)"
				 d="m 551.25041,46.437254 q -0.0299,0.897061 -1.18113,0.88211 -3.67795,-0.08971 -9.89757,-0.239216 -2.1978,-0.04485 -6.02526,0.07475 -4.63482,0.14951 -6.01031,0.164461 -0.26912,0 -0.50833,-0.104657 -0.37378,-0.179412 -0.37378,-0.568138 0.015,-0.58309 0.52329,-0.777453 0.16446,-0.0598 1.21103,-0.209314 0.77745,-0.04485 2.2875,-0.209315 1.97354,-0.284069 1.98849,-1.33064 0.0299,-1.554906 -0.11961,-4.395598 -0.16446,-3.064958 -0.16446,-4.470354 0,-1.495101 0.20931,-6.907369 0.0449,-1.270836 -0.55318,-1.77917 -0.53824,-0.463482 -1.83898,-0.493384 -0.83726,-0.0299 -1.95858,-0.0598 -0.91201,-0.01495 -1.21103,-0.254167 -0.28407,-0.239217 -0.25417,-0.852208 0.0299,-0.642894 1.37549,-0.612992 2.66128,0.07475 5.33751,0.14951 5.1581,0.13456 5.32257,0.13456 7.68482,-0.269119 10.10688,-0.224266 1.24094,0.01495 1.22598,0.702698 -0.0149,0.627943 -0.77745,0.807355 -0.14951,0.04485 -1.67451,0.179412 -1.65956,0.14951 -2.2277,0.433579 -0.65785,0.343874 -0.6728,1.181131 0,0.179412 0.19436,2.631378 0.20932,2.526722 0.20932,4.320844 0,1.554905 -0.16446,4.335794 -0.16446,3.050007 -0.19437,4.350745 -0.0149,1.076473 0.32893,1.4652 0.35882,0.388726 1.37549,0.403677 0.13456,0 1.12133,0.164461 0.98676,0.164461 1.12132,0.164461 1.89878,0.0299 1.86888,0.941914 z" />
			<path
						 stroke="rgb(254, 26, 2)"
			 stroke-width="1"
			 fill="rgb(237, 115, 97)"
				 d="m 588.25415,39.126208 q 0,0.29902 -0.41863,3.005154 -0.46348,3.035056 -0.80735,4.470353 -0.0598,0.239217 -0.40368,0.403678 -0.34387,0.164461 -0.58309,0.164461 -1.82402,0 -5.47207,-0.0299 -3.6331,-0.01495 -5.45712,-0.01495 -6.08506,0 -10.12184,0.07476 -0.8522,0.01495 -2.81079,0.119608 -1.76422,0.104657 -2.78089,0.104657 -0.40367,0 -0.86715,-0.194363 -0.58309,-0.239216 -0.58309,-0.612992 0,-0.762501 0.53823,-0.986766 0.0149,0 0.97182,-0.149511 0.7326,-0.01495 2.55662,-0.209314 2.00344,-0.328922 1.95858,-1.584807 -0.10465,-1.794122 -0.26911,-6.17477 -0.0449,-1.659562 0.0897,-5.00859 0.13456,-3.737753 0.13456,-5.023541 0,-0.523285 -0.53823,-0.941914 -0.43358,-0.343873 -0.71765,-0.343873 -2.39217,0 -3.24437,-0.134559 -0.43358,-0.0598 -0.88211,-0.134559 -0.40368,-0.179412 -0.40368,-0.926963 0,-0.284069 0.40368,-0.508335 0.46348,-0.254167 1.18113,-0.254167 1.37549,0 5.51692,0.209314 3.75271,0.194364 4.97869,0.149511 5.60663,-0.224266 7.4157,-0.224266 0.11961,0 1.89878,-0.0299 1.77917,-0.04485 1.89878,-0.04485 1.01667,0 1.01667,0.762502 0,1.076473 -2.138,1.076473 -0.10465,0 -1.36054,0.179412 -1.25588,0.164461 -1.39044,0.164461 -1.34559,0 -1.27084,0.837257 0.25417,3.020105 0.25417,8.53703 0,1.91373 -0.22427,5.038492 -0.22426,3.109811 -0.22426,3.199517 0,0.642894 0.64289,0.702698 0.20932,0.01495 0.43358,0.01495 1.61471,0 3.10981,-0.747551 1.3755,-0.687747 3.81251,-2.526722 0.58309,-0.418628 1.15123,-0.852207 0.44853,-0.403678 0.80735,-1.345592 0.52329,-1.375493 1.00172,-1.375493 1.19608,0 1.19608,1.166179 z" />
			<path
						 stroke="rgb(254, 26, 2)"
			 stroke-width="1"
			 fill="rgb(237, 115, 97)"
				 d="m 622.08831,35.91174 q -0.0897,5.531875 -4.15638,8.641686 -3.64805,2.780889 -8.83605,2.616428 -7.77453,-0.254167 -12.06547,-0.0598 -0.80735,0.0299 -1.525,-0.14951 -1.00172,-0.254167 -0.97182,-0.852208 0.0299,-0.463481 0.50834,-0.762502 0.37377,-0.239216 0.64289,-0.239216 0.13456,0 1.56986,0.104657 1.43529,0.104657 1.56985,0.104657 0.31397,0 0.68775,-0.194363 0.46348,-0.254167 0.46348,-0.598041 0,-0.209314 -0.19436,-3.962019 -0.20932,-3.872312 -0.20932,-5.666434 0,-0.672796 0.0299,-1.106375 0.22426,-3.67795 0.13455,-5.472072 -0.0598,-1.136277 -0.92696,-1.196081 -0.83726,-0.04485 -1.88383,0.0598 -1.16618,0.119608 -1.48015,0.119608 -0.22426,0 -0.53823,-0.194363 -0.31397,-0.194363 -0.31397,-0.418628 0.0149,-0.867159 1.04657,-1.255886 0.80735,-0.29902 2.75098,-0.583089 1.62966,-0.224265 2.01839,-0.224265 l 7.65492,-0.194364 q 14.21841,0.254168 14.02405,11.48238 z m -4.4554,-0.01495 q 0,-3.423783 -1.12133,-5.935553 -1.37549,-3.124762 -3.97697,-3.169615 -0.71765,-0.01495 -0.74755,1.838975 -0.0299,1.809072 0.11961,3.797557 0.14951,1.973534 0.10466,3.842411 -0.11961,5.382366 -0.10466,6.399035 0.0448,2.137995 0.85221,2.152946 2.12304,0.0299 3.58824,-3.079909 1.28579,-2.736036 1.28579,-5.845847 z" />
			<path
						 stroke="rgb(254, 26, 2)"
			 stroke-width="1"
			 fill="rgb(237, 115, 97)"
				 d="m 658.12024,39.141159 q 0,1.779171 -0.34387,3.692901 -0.38873,1.824024 -0.77745,3.648047 -0.16446,0.822306 -2.49682,0.822306 -1.27084,0 -4.90393,-0.08971 -3.61815,-0.08971 -4.88899,-0.08971 -7.59511,0 -12.30468,0.224265 l -3.34903,0.14951 q -0.34387,0 -0.64289,-0.328922 -0.26912,-0.284069 -0.25417,-0.553188 0.0149,-0.612991 0.64289,-0.807354 0.29902,-0.104657 1.16618,-0.134559 0.59804,0 2.01839,-0.04485 2.18285,-0.07476 2.10809,-2.167898 -0.0299,-0.687746 -0.23921,-3.827459 -0.17941,-2.49682 -0.17941,-4.679668 0,-0.0299 0.10465,-3.109811 0.11961,-3.079909 0.11961,-3.498538 0,-1.121326 -1.19608,-1.77917 -0.40368,-0.224266 -2.9902,-0.508335 -2.09315,-0.254167 -2.09315,-0.912012 0,-0.852208 0.82231,-0.852208 -0.34387,0 3.58824,0.14951 3.99192,0.149511 8.44733,0.149511 6.24952,0 9.38923,-0.149511 3.15467,-0.164461 5.65149,-0.164461 1.06152,0 1.33064,1.375494 0.0747,0.403677 0.0747,2.152946 0,1.33064 -0.49338,3.498537 -0.20931,0.912012 -0.89706,0.986767 -0.31397,0.0299 -0.59804,-0.209314 -0.26912,-0.254167 -0.28407,-0.687747 -0.0149,-0.568138 -0.17941,-0.941914 -0.85221,-1.958583 -3.27428,-2.915448 -1.88382,-0.762501 -4.14143,-0.762501 -0.26911,0 -0.47843,0.239216 -0.20931,0.224265 -0.20931,0.44853 0,0.88211 0.0448,1.958583 0.0897,2.152947 0.0897,3.22942 0,0.956865 1.03162,0.956865 0.1196,0 1.09142,-0.119609 0.98677,-0.119608 1.10638,-0.119608 1.45024,0 2.61642,0.388727 0.86716,0.284069 0.89706,1.973534 0.0299,1.076473 -0.61299,3.722802 -0.26912,1.136277 -0.85221,1.136277 -0.61299,0 -0.64289,-0.523285 -0.0149,-0.14951 0.0149,-0.478433 0.0149,-0.388726 0.0149,-0.538236 0,-1.091424 -1.09142,-2.317407 -1.24094,-1.390445 -2.85565,-1.390445 -0.22426,0 -0.58308,0.403678 -0.015,1.719366 -0.23922,5.262757 -0.20932,3.528439 -0.20932,3.39388 0,0.717649 0.6429,0.717649 2.31741,0 5.83089,-2.377211 2.37722,-1.61471 3.42379,-2.915448 0.29902,-0.373776 0.46348,-1.061522 0.17941,-0.687747 0.74755,-0.687747 0.40368,0 0.64289,0.44853 0.17941,0.328923 0.17941,0.612992 z" />
			<path
			 stroke="rgb(254, 26, 2)"
			 stroke-width="1"
			 fill="rgb(237, 115, 97)"
				 d="m 702.47992,46.66152 q 0.0149,0.29902 -0.65785,0.523285 -0.52328,0.164461 -0.86716,0.164461 -1.09142,-0.01495 -3.27427,-0.14951 -2.18285,-0.119608 -3.27427,-0.134559 -0.10466,0 -1.33064,0.0598 -1.34559,0.07476 -1.94363,0.08971 -0.97182,0.01495 -1.36055,-1.420346 -0.32892,-1.510053 -0.65784,-3.005154 -0.56814,-2.182848 -1.51005,-3.513489 -1.28579,-1.794122 -3.40883,-2.36226 0.14951,2.870595 0.1196,3.767656 -0.0299,0.882109 -0.23921,2.033338 -0.14951,0.732599 -0.29902,1.465199 -0.13456,0.777453 0.7924,0.792404 0.86716,0.134559 2.00344,0.29902 1.00172,0.14951 1.37549,0.328922 0.59804,0.299021 0.61299,0.986767 0,0.418629 -0.43358,0.672796 -0.35882,0.194363 -0.7326,0.194363 -1.15122,-0.119608 -11.09365,-0.388726 -1.61471,-0.0299 -2.9304,-0.0299 -3.13971,0 -4.64976,0.164461 -1.51006,0.179412 -1.51006,0.179412 -0.37377,0 -0.71765,-0.254167 -0.34387,-0.254167 -0.34387,-0.612992 0.0149,-0.792403 1.25589,-1.001718 1.64461,-0.269118 2.78089,-0.538236 0.94191,-0.224265 1.28578,-0.553188 0.44853,-0.403677 0.46348,-1.345591 0.0299,-1.495102 -0.10465,-3.423782 -0.0897,-1.390445 -0.17942,-2.780889 -0.0299,-0.702698 -0.0299,-1.420347 0,-1.838974 0.23922,-4.231137 0.22426,-2.347309 0.22426,-2.691183 -0.0149,-1.196081 -0.23921,-1.599758 -0.31397,-0.598041 -1.34559,-0.598041 -0.0897,0 -1.15123,0.04485 -1.00172,0.04485 -1.13628,0.04485 -1.07647,-0.0299 -1.21103,-0.08971 -0.40368,-0.14951 -0.38873,-0.867159 0.0149,-0.852207 1.97354,-0.852207 0.49338,0 1.16618,0.07475 1.4652,0.0299 4.41055,-0.0598 2.94535,-0.08971 4.38064,-0.0598 5.56178,0.104657 6.33923,0.164461 3.97697,0.343873 6.05516,1.659562 2.67624,1.719367 2.61643,5.202954 -0.0149,1.196081 -1.22598,2.36226 -0.43358,0.433579 -1.73432,1.345591 5.08335,3.722803 8.16325,8.53703 0.35883,0.553187 2.94535,1.48015 0.71765,0.254167 0.77746,1.345592 z M 689.36788,32.23379 q 0.0598,-3.124762 -3.55834,-5.038492 -0.79241,-0.418628 -1.49511,-0.418628 -0.70269,0 -0.71764,0.837257 0.25416,2.317407 0.43358,6.578446 1.01666,0.313971 3.49853,0.358824 1.79412,0.0299 1.83898,-2.317407 z" />
		</g>
		<path
			 d="m 58.024444,1025.3385 -10.386772,9.6238 1.279306,14.102 -12.362454,-6.9045 -13.016448,5.5744 2.746355,-13.891 -9.323912,-10.6568 14.059795,-1.6806 7.253952,-12.1607 5.943076,12.8524 z"
			 id="path3380"
			 stroke="rgb(254, 26, 2)"
			 stroke-width="2"
			 fill="rgb(237, 115, 97)"
			 transform="matrix(1.0347889,0,0,0.8201659,-13.447182,181.51471)" />
		<use
			 x="0"
			 y="0"
			 xlink:href="#path3380"
			 id="use3450"
			 width="100%"
			 height="100%" />
		<use
			 x="0"
			 y="0"
			 xlink:href="#use3450"
			 id="use3500"
			 width="100%"
			 height="100%" />
		<use
			 x="0"
			 y="0"
			 xlink:href="#use3450"
			 transform="translate(42.747449,0)"
			 id="use3502"
			 width="100%"
			 height="100%" />
		<use
			 x="0"
			 y="0"
			 xlink:href="#use3450"
			 transform="translate(85.494897,0)"
			 id="use3504"
			 width="100%"
			 height="100%" />
		<use
			 x="0"
			 y="0"
			 xlink:href="#use3450"
			 transform="translate(128.24235,0)"
			 id="use3506"
			 width="100%"
			 height="100%" />
		<use
			 x="0"
			 y="0"
			 xlink:href="#use3450"
			 transform="translate(170.98979,0)"
			 id="use3508"
			 width="100%"
			 height="100%" />
		<use
			 x="0"
			 y="0"
			 xlink:href="#use3450"
			 transform="translate(213.73724,0)"
			 id="use3510"
			 width="100%"
			 height="100%" />
		<use
			 x="0"
			 y="0"
			 xlink:href="#use3450"
			 transform="translate(256.48469,0)"
			 id="use3512"
			 width="100%"
			 height="100%" />
		<use
			 x="0"
			 y="0"
			 xlink:href="#use3450"
			 transform="translate(299.23214,0)"
			 id="use3514"
			 width="100%"
			 height="100%" />
		<use
			 x="0"
			 y="0"
			 xlink:href="#use3450"
			 transform="translate(341.97959,0)"
			 id="use3516"
			 width="100%"
			 height="100%" />
		<use
			 x="0"
			 y="0"
			 xlink:href="#use3450"
			 transform="translate(384.72704,0)"
			 id="use3518"
			 width="100%"
			 height="100%" />
		<use
			 x="0"
			 y="0"
			 xlink:href="#use3450"
			 transform="translate(427.47449,0)"
			 id="use3520"
			 width="100%"
			 height="100%" />
		<use
			 x="0"
			 y="0"
			 xlink:href="#use3450"
			 transform="translate(470.22193,0)"
			 id="use3522"
			 width="100%"
			 height="100%" />
		<use
			 x="0"
			 y="0"
			 xlink:href="#use3450"
			 transform="translate(512.96938,0)"
			 id="use3524"
			 width="100%"
			 height="100%" />
		<use
			 x="0"
			 y="0"
			 xlink:href="#use3450"
			 transform="translate(555.71683,0)"
			 id="use3526"
			 width="100%"
			 height="100%" />
		<use
			 x="0"
			 y="0"
			 xlink:href="#use3450"
			 transform="translate(598.46428,0)"
			 id="use3528"
			 width="100%"
			 height="100%" />
		<use
			 x="0"
			 y="0"
			 xlink:href="#use3450"
			 transform="translate(641.21173,0)"
			 id="use3530"
			 width="100%"
			 height="100%" />
		<use
			 x="0"
			 y="0"
			 xlink:href="#use3450"
			 transform="translate(683.95918,0)"
			 id="use3532"
			 width="100%"
			 height="100%" />
	</g>
</svg>
