<?xml version="1.0" encoding="UTF-8" standalone="no"?>
<!-- Created with Inkscape (http://www.inkscape.org/) -->

<svg
   xmlns:dc="http://purl.org/dc/elements/1.1/"
   xmlns:cc="http://creativecommons.org/ns#"
   xmlns:rdf="http://www.w3.org/1999/02/22-rdf-syntax-ns#"
   xmlns:svg="http://www.w3.org/2000/svg"
   xmlns="http://www.w3.org/2000/svg"
   xmlns:sodipodi="http://sodipodi.sourceforge.net/DTD/sodipodi-0.dtd"
   xmlns:inkscape="http://www.inkscape.org/namespaces/inkscape"
   width="750"
   height="200"
   viewBox="0 0 750.00001 200.00001"
   id="svg2"
   version="1.1"
   inkscape:version="0.91 r13725"
   sodipodi:docname="logo.svg">
  <defs
     id="defs4" />
  <sodipodi:namedview
     id="base"
     pagecolor="#ffffff"
     bordercolor="#666666"
     borderopacity="1.0"
     inkscape:pageopacity="0.0"
     inkscape:pageshadow="2"
     inkscape:zoom="0.98994949"
     inkscape:cx="375"
     inkscape:cy="163.27767"
     inkscape:document-units="px"
     inkscape:current-layer="flowRoot3336"
     showgrid="false"
     units="px"
     inkscape:window-width="1366"
     inkscape:window-height="705"
     inkscape:window-x="-8"
     inkscape:window-y="-8"
     inkscape:window-maximized="1" />
  <metadata
     id="metadata7">
    <rdf:RDF>
      <cc:Work
         rdf:about="">
        <dc:format>image/svg+xml</dc:format>
        <dc:type
           rdf:resource="http://purl.org/dc/dcmitype/StillImage" />
        <dc:title></dc:title>
      </cc:Work>
    </rdf:RDF>
  </metadata>
  <g
     inkscape:label="Layer 1"
     inkscape:groupmode="layer"
     id="layer1"
     transform="translate(0,-852.36216)">
    <g
       transform="matrix(1.4470879,0,0,5.0431406,-58.537044,392.05322)"
       style="font-style:normal;font-variant:normal;font-weight:normal;font-stretch:normal;font-size:40px;line-height:125%;font-family:Century;-inkscape-font-specification:Century;text-align:start;letter-spacing:0px;word-spacing:0px;text-anchor:start;fill:#214254;fill-opacity:1;stroke:none;stroke-width:1px;stroke-linecap:butt;stroke-linejoin:miter;stroke-opacity:1"
       id="flowRoot3336">
      <path
         d="m 65.832031,113.35883 -2.34375,5.2539 q -0.605469,1.32813 -0.976562,1.79688 -0.371094,0.44922 -0.820313,0.44922 -0.429687,0 -0.761719,-0.3711 -0.214843,-0.23437 -0.996093,-1.71875 -0.761719,-1.48437 -1.269532,-2.63672 l -2.578125,-5.80078 q -0.527343,-1.21094 -1.113281,-1.21094 -0.625,0 -0.683594,1.03516 -0.136718,2.30469 -0.136718,4.25781 0,2.03125 0.195312,2.75391 0.136719,0.42969 0.351563,0.625 0.234375,0.19531 1.230468,0.70312 0.644532,0.33204 0.644532,1.15235 0,2.1875 -5.605469,2.1875 -4.726563,0 -4.726563,-2.12891 0,-0.54687 0.234375,-0.78125 0.253907,-0.2539 1.269532,-0.74219 0.644531,-0.29296 0.859375,-0.80078 0.234375,-0.50781 0.390625,-1.97265 0.175781,-1.5625 0.332031,-5.11719 0.15625,-3.57422 0.15625,-6.11328 0,-3.1836 -0.488281,-4.316408 -0.175782,-0.390625 -0.410157,-0.585938 -0.214843,-0.195312 -0.839843,-0.507812 -1.386719,-0.664063 -1.386719,-1.71875 0,-0.683594 0.507812,-1.25 0.527344,-0.566407 1.386719,-0.800782 0.859375,-0.253906 2.285156,-0.429687 1.445313,-0.195313 2.441407,-0.195313 2.5,0 3.535156,0.410157 0.507812,0.195312 0.800781,0.527343 0.292969,0.332032 0.839844,1.367188 l 4.0625,7.480472 q 0.664062,1.23047 0.917969,1.5039 0.253906,0.27344 0.703125,0.27344 0.390625,0 0.683593,-0.29297 0.3125,-0.29297 0.722657,-1.09375 L 68,99.179138 q 0.507812,-1.035156 0.664062,-1.347656 0.957032,-1.953125 1.894532,-2.597657 1.191406,-0.839843 4.335937,-0.839843 5.527344,0 5.527344,2.519531 0,0.566406 -0.214844,0.917969 -0.214844,0.332031 -0.878906,0.820312 -0.898438,0.683594 -1.132813,1.972656 -0.449218,2.69531 -0.449218,6.5625 0,4.98047 0.46875,8.73047 0.117187,0.91797 0.351562,1.25 0.253906,0.33203 1.269531,0.99609 0.703125,0.46875 0.703125,1.25 0,1.36719 -1.816406,1.9336 -0.9375,0.3125 -1.972656,0.41015 -1.035156,0.0977 -3.183594,0.0977 -3.300781,0 -4.921875,-0.46875 -1.796875,-0.52734 -1.796875,-1.79688 0,-0.46875 0.234375,-0.76171 0.234375,-0.3125 1.210938,-1.11329 0.507812,-0.41015 0.683593,-1.58203 0.195313,-1.17187 0.195313,-3.98437 0,-1.5625 -0.15625,-2.05078 -0.136719,-0.48828 -0.605469,-0.48828 -0.546875,0 -1.054687,0.76171 -0.507813,0.74219 -1.523438,2.98829 z"
         style="font-style:normal;font-variant:normal;font-weight:normal;font-stretch:normal;font-family:'Cooper Black';-inkscape-font-specification:'Cooper Black, ';fill:#214254;fill-opacity:1"
         id="path4145" />
      <path
         d="m 100.46094,111.60101 -2.578128,7.08985 q -0.957031,2.63672 -1.933593,4.29687 -0.957032,1.67969 -2.1875,2.85156 -2.539063,2.42188 -6.113282,2.42188 -2.890625,0 -4.6875,-1.52344 -1.386718,-1.17187 -1.386718,-2.98828 0,-1.50391 0.957031,-2.51953 0.976562,-1.03516 2.382812,-1.03516 1.40625,0 2.265625,0.9375 0.410157,0.42969 0.546875,0.76172 0.136719,0.33203 0.410157,1.46485 0.214843,0.85937 0.976562,0.85937 0.605469,0 1.015625,-0.52734 0.410156,-0.52735 0.410156,-1.3086 0,-0.91797 -1.015625,-3.0664 l -4.707031,-10.01953 q -0.742187,-1.5625 -1.113281,-1.95313 -0.371094,-0.39062 -1.640625,-0.95703 -0.390625,-0.15625 -0.683594,-0.60547 -0.273437,-0.46875 -0.273437,-0.89844 0,-1.73828 3.457031,-2.36328 2.304687,-0.41015 5.253906,-0.41015 2.070313,0 3.261719,0.42968 1.601562,0.56641 1.601562,1.9336 0,0.48828 -0.449218,1.15234 -0.429688,0.625 -0.429688,1.11328 0,0.46875 0.195313,0.97656 0.214843,0.50782 0.878906,1.71875 0.742187,1.36719 1.308594,1.36719 0.605468,0 1.25,-1.1914 0.644531,-1.21094 0.644531,-2.32422 0,-0.89844 -0.488281,-1.46485 -0.742188,-0.8789 -0.742188,-1.5039 0,-0.9961 1.328125,-1.58203 1.328125,-0.60547 3.554689,-0.60547 4.14062,0 4.14062,1.99218 0,0.72266 -0.42968,1.17188 -0.41016,0.42969 -1.52344,0.82031 -0.9375,0.35156 -1.48438,1.17188 -0.85937,1.30859 -1.97265,4.3164 z"
         style="font-style:normal;font-variant:normal;font-weight:normal;font-stretch:normal;font-family:'Cooper Black';-inkscape-font-specification:'Cooper Black, ';fill:#214254;fill-opacity:1"
         id="path4147" />
      <path
         d="m 124.83594,121.44476 -1.40625,0 q -1.23047,0 -2.75391,0.11719 -0.95703,0.0781 -1.32812,0.0781 -1.3086,0 -2.12891,-0.60547 -0.82031,-0.60547 -0.82031,-1.58203 0,-0.6836 0.35156,-1.05469 0.37109,-0.39063 1.19141,-0.625 0.78125,-0.19531 1.05468,-0.625 0.27344,-0.44922 0.42969,-1.71875 0.15625,-1.46485 0.27344,-5.70313 0.13672,-4.23828 0.13672,-8.41797 0,-1.640621 -0.25391,-2.187496 -0.2539,-0.546875 -1.1914,-0.878906 -1.34766,-0.507813 -1.34766,-1.738281 0,-0.957032 0.91797,-1.484375 0.9375,-0.546875 2.59765,-0.546875 0.54688,0 1.28907,0.01953 1.64062,0.05859 2.38281,0.05859 2.79297,0 6.30859,-0.175782 0.74219,-0.03906 1.85547,-0.03906 4.47266,0 7.07031,1.015625 3.86719,1.523437 5.82032,5.117187 1.73828,3.16406 1.73828,7.53906 0,2.20703 -0.64453,4.4336 -0.64454,2.20703 -1.73829,3.82812 -2.26562,3.28125 -6.25,4.60938 -2.34375,0.78125 -5,0.78125 l -2.36328,-0.0781 -2.03125,-0.0586 q -2.36328,-0.0781 -4.16015,-0.0781 z m 4.10156,-21.17187 0,15.11719 q 0,1.23046 0.52734,1.75781 0.52735,0.50781 1.75782,0.50781 5.70312,0 5.70312,-8.67187 0,-4.78516 -1.32812,-7.42188 -1.46485,-2.910156 -4.96094,-2.910156 -0.9375,0 -1.32813,0.371094 -0.37109,0.371094 -0.37109,1.250002 z"
         style="font-style:normal;font-variant:normal;font-weight:normal;font-stretch:normal;font-family:'Cooper Black';-inkscape-font-specification:'Cooper Black, ';fill:#214254;fill-opacity:1"
         id="path4149" />
      <path
         d="m 167.33594,111.60101 -2.57813,7.08985 q -0.95703,2.63672 -1.93359,4.29687 -0.95703,1.67969 -2.1875,2.85156 -2.53906,2.42188 -6.11328,2.42188 -2.89063,0 -4.6875,-1.52344 -1.38672,-1.17187 -1.38672,-2.98828 0,-1.50391 0.95703,-2.51953 0.97656,-1.03516 2.38281,-1.03516 1.40625,0 2.26563,0.9375 0.41015,0.42969 0.54687,0.76172 0.13672,0.33203 0.41016,1.46485 0.21484,0.85937 0.97656,0.85937 0.60547,0 1.01563,-0.52734 0.41015,-0.52735 0.41015,-1.3086 0,-0.91797 -1.01562,-3.0664 l -4.70703,-10.01953 q -0.74219,-1.5625 -1.11329,-1.95313 -0.37109,-0.39062 -1.64062,-0.95703 -0.39063,-0.15625 -0.68359,-0.60547 -0.27344,-0.46875 -0.27344,-0.89844 0,-1.73828 3.45703,-2.36328 2.30469,-0.41015 5.25391,-0.41015 2.07031,0 3.26171,0.42968 1.60157,0.56641 1.60157,1.9336 0,0.48828 -0.44922,1.15234 -0.42969,0.625 -0.42969,1.11328 0,0.46875 0.19531,0.97656 0.21485,0.50782 0.87891,1.71875 0.74219,1.36719 1.30859,1.36719 0.60547,0 1.25,-1.1914 0.64453,-1.21094 0.64453,-2.32422 0,-0.89844 -0.48828,-1.46485 -0.74218,-0.8789 -0.74218,-1.5039 0,-0.9961 1.32812,-1.58203 1.32813,-0.60547 3.55469,-0.60547 4.14062,0 4.14062,1.99218 0,0.72266 -0.42968,1.17188 -0.41016,0.42969 -1.52344,0.82031 -0.9375,0.35156 -1.48438,1.17188 -0.85937,1.30859 -1.97265,4.3164 z"
         style="font-style:normal;font-variant:normal;font-weight:normal;font-stretch:normal;font-family:'Cooper Black';-inkscape-font-specification:'Cooper Black, ';fill:#214254;fill-opacity:1"
         id="path4151" />
      <path
         d="m 197.17969,109.19867 0.27343,6.875 q 0.0391,0.78125 0.23438,1.15234 0.21484,0.3711 1.21094,1.42578 0.29297,0.3125 0.29297,0.87891 0,1.28906 -1.54297,1.79688 -1.54297,0.50781 -5.50782,0.50781 -2.69531,0 -3.80859,-0.46875 -1.15234,-0.48828 -1.15234,-1.58203 0,-0.39063 0.11718,-0.56641 0.11719,-0.19531 0.78125,-0.91797 0.78125,-0.82031 0.78125,-5.46875 0,-2.69531 -0.625,-3.98437 -0.50781,-1.03516 -1.875,-1.03516 -1.30859,0 -1.79687,0.83984 -0.48828,0.83985 -0.48828,3.04688 l 0,3.86719 q 0,1.15234 0.13672,1.58203 0.15625,0.42969 0.97656,1.66015 0.21484,0.35157 0.21484,0.80079 0,1.15234 -1.60156,1.69921 -1.60156,0.54688 -5,0.54688 -5.42969,0 -5.42969,-2.24609 0,-0.46875 0.15625,-0.70313 0.17578,-0.25391 0.80078,-0.70312 0.50782,-0.3711 0.64454,-0.83985 0.13671,-0.48828 0.2539,-2.36328 0.13672,-2.22656 0.13672,-4.66797 0,-1.34765 -0.21484,-1.75781 -0.19532,-0.42969 -1.17188,-1.03516 -0.83984,-0.52734 -0.83984,-1.28906 0,-0.78125 0.68359,-1.26953 0.6836,-0.50781 2.8125,-1.26953 1.875,-0.66406 3.61328,-1.11328 1.73828,-0.46875 2.38282,-0.46875 0.58593,0 0.97656,0.42968 0.41015,0.42969 0.41015,1.01563 0,0.0586 -0.0195,0.48828 -0.0195,0.15625 -0.0195,0.27344 0,0.9375 0.78125,0.9375 0.46875,0 0.9961,-0.74219 1.67968,-2.42187 4.88281,-2.42187 2.46094,0 4.21875,1.28906 1.23047,0.91797 1.71875,2.16797 0.48828,1.23047 0.60547,3.63281 z"
         style="font-style:normal;font-variant:normal;font-weight:normal;font-stretch:normal;font-family:'Cooper Black';-inkscape-font-specification:'Cooper Black, ';fill:#214254;fill-opacity:1"
         id="path4153" />
      <path
         d="m 211.51562,101.97211 q 3.39844,0 5.76172,1.71875 1.25,0.91797 1.73828,2.10937 0.50782,1.17188 0.50782,3.24219 l -0.0391,2.91016 q 0,3.02734 0.42969,3.92578 0.21485,0.42968 0.41016,0.54687 0.19531,0.11719 0.82031,0.21485 0.625,0.0977 0.625,0.82031 0,0.9375 -0.76172,1.95312 -0.74219,1.01563 -1.93359,1.69922 -1.46485,0.85938 -3.06641,0.85938 -2.05078,0 -3.24219,-1.40625 -0.41015,-0.50782 -0.76171,-0.50782 -0.39063,0 -1.03516,0.48829 -1.95313,1.42578 -4.43359,1.42578 -2.5586,0 -4.14063,-1.09375 -1.03516,-0.72266 -1.64062,-1.875 -0.60547,-1.17188 -0.60547,-2.44141 0,-2.03125 1.64062,-3.59375 2.5586,-2.46094 7.65625,-2.48047 1.13281,0 1.42578,-0.21484 0.29297,-0.23438 0.29297,-1.05469 0,-2.07031 -0.42969,-2.98828 -0.42968,-0.9375 -1.40625,-0.9375 -0.58593,0 -1.05468,0.35156 -0.44922,0.35156 -1.13282,1.28906 -1.73828,2.48047 -3.63281,2.48047 -0.95703,0 -1.5625,-0.5664 -0.60547,-0.56641 -0.60547,-1.48438 0,-0.9375 0.74219,-1.875 0.76172,-0.9375 2.05078,-1.64062 3.53516,-1.875 7.38281,-1.875 z m -1.30859,11.30859 q -0.85937,0 -1.50391,0.70313 -0.625,0.70312 -0.625,1.67968 0,0.9375 0.44922,1.52344 0.44922,0.56641 1.19141,0.56641 1.5625,0 1.5625,-2.63672 0,-1.07422 -0.23438,-1.44531 -0.21484,-0.3711 -0.83984,-0.39063 z"
         style="font-style:normal;font-variant:normal;font-weight:normal;font-stretch:normal;font-family:'Cooper Black';-inkscape-font-specification:'Cooper Black, ';fill:#214254;fill-opacity:1"
         id="path4155" />
      <path
         d="m 232.49219,102.12836 q 1.11328,0 1.11328,1.58203 0,0.0195 0,0.33203 -0.0195,0.3125 -0.0195,0.50781 0,1.05469 0.625,1.05469 0.33203,0 1.03515,-0.83984 1.05469,-1.21094 2.65625,-1.91407 1.60157,-0.72265 3.28125,-0.72265 3.26172,0 4.53125,2.38281 0.48828,0.87891 0.80078,0.87891 0.21485,0 1.01563,-0.78125 2.53906,-2.48047 5.76172,-2.48047 2.51953,0 4.12109,1.38672 1.67969,1.44531 1.67969,4.33593 0,0.625 -0.0391,2.10938 -0.0391,0.50781 -0.0391,3.0664 0,1.64063 -0.0195,2.30469 -0.0195,0.41016 -0.0195,0.58594 0,1.25 0.78125,2.1875 0.46875,0.56641 0.56641,0.76172 0.11719,0.17578 0.11719,0.48828 0,2.5 -5.87891,2.5 -2.59766,0 -4.19922,-0.625 -1.58203,-0.625 -1.58203,-1.64063 0,-0.39062 0.0977,-0.58593 0.11718,-0.21485 0.76171,-1.09375 0.60547,-0.80078 0.60547,-5.33203 0,-2.63672 -0.37109,-3.67188 -0.42969,-1.23047 -1.71875,-1.23047 -0.64453,0 -1.15234,0.41016 -0.48829,0.39062 -0.64454,0.99609 -0.17578,0.70313 -0.19531,3.75 0.0586,3.28125 0.19531,3.98438 0.15625,0.70312 0.9961,1.95312 0.19531,0.29297 0.19531,0.74219 0,2.32422 -6.07422,2.32422 -3.65234,0 -4.92187,-0.54688 -1.01563,-0.42968 -1.01563,-1.52343 0,-0.48829 0.11719,-0.6836 0.13672,-0.19531 0.87891,-0.89844 0.42968,-0.41015 0.54687,-0.76171 0.13672,-0.3711 0.19531,-1.32813 0.13672,-2.14844 0.13672,-4.33594 0,-3.82812 -1.95312,-3.82812 -1.46485,0 -1.73828,1.64062 -0.23438,1.54297 -0.23438,4.41407 0,2.14843 0.0781,2.8125 0.0977,0.66406 0.48828,1.38671 0.46875,0.83985 0.46875,1.36719 0,1.26953 -1.77735,1.75781 -1.93359,0.52735 -4.25781,0.52735 -3.00781,0 -4.41406,-0.46875 -1.40625,-0.48828 -1.40625,-1.52344 0,-0.39062 0.17578,-0.66406 0.19531,-0.27344 0.85937,-0.85938 0.87891,-0.80078 1.01563,-2.20703 0.21484,-2.42187 0.21484,-5.01953 0,-1.85547 -0.19531,-2.57812 -0.17578,-0.74219 -0.78125,-1.19141 -0.58594,-0.44922 -0.76172,-0.68359 -0.15625,-0.23438 -0.15625,-0.64454 0,-1.30859 2.05078,-2.07031 4.94141,-1.77734 7.40235,-1.79687 z"
         style="font-style:normal;font-variant:normal;font-weight:normal;font-stretch:normal;font-family:'Cooper Black';-inkscape-font-specification:'Cooper Black, ';fill:#214254;fill-opacity:1"
         id="path4157" />
      <path
         d="m 272.47266,103.33929 0,11.34766 q 0,1.34766 0.23437,1.97266 0.25391,0.625 0.99609,1.15234 0.60547,0.42969 0.80079,0.74219 0.21484,0.29297 0.21484,0.76172 0,2.51953 -6.38672,2.51953 -3.4375,0 -5.44922,-0.54688 -0.68359,-0.19531 -1.11328,-0.68359 -0.41016,-0.48828 -0.41016,-1.11328 0,-0.52735 0.21485,-0.82031 0.21484,-0.29297 1.09375,-0.9375 0.60547,-0.44922 0.85937,-1.46485 0.25391,-1.01562 0.25391,-3.02734 0,-0.64453 -0.0977,-2.40235 -0.0781,-1.77734 -0.11718,-2.07031 -0.11719,-0.80078 -1.09375,-1.23047 -1.21094,-0.52734 -1.21094,-1.5625 0,-1.23047 1.58203,-1.83593 2.1875,-0.83985 4.6875,-1.42579 2.5,-0.58593 3.86719,-0.58593 1.07422,0 1.07422,1.21093 z m -3.86719,-8.554683 q 1.69922,0 2.69531,0.644531 0.99609,0.625 0.99609,1.699219 0,1.503906 -1.5039,2.382812 -2.38281,1.386721 -5.76172,1.386721 -1.42578,0 -2.26563,-0.54688 -1.13281,-0.703122 -1.13281,-1.953122 0,-1.679688 2.40235,-2.636719 2.4414,-0.976562 4.57031,-0.976562 z"
         style="font-style:normal;font-variant:normal;font-weight:normal;font-stretch:normal;font-family:'Cooper Black';-inkscape-font-specification:'Cooper Black, ';fill:#214254;fill-opacity:1"
         id="path4159" />
      <path
         d="m 287.04297,101.99164 q 3.47656,0 6.13281,1.73828 2.51953,1.66016 2.51953,4.12109 0,1.69922 -1.17187,2.75391 -1.09375,0.99609 -2.63672,0.99609 -1.6211,0 -2.44141,-1.17187 -0.2539,-0.3711 -0.74219,-1.89453 -0.52734,-1.64063 -2.01171,-1.64063 -1.07422,0 -1.81641,0.9375 -0.72266,0.9375 -0.72266,2.30469 0,2.34375 1.67969,4.16016 1.36719,1.46484 3.4375,1.46484 0.97656,0 1.64063,-0.15625 0.66406,-0.17578 1.73828,-0.68359 0.27343,-0.13672 0.60547,-0.13672 0.66406,0 1.17187,0.625 0.50781,0.625 0.50781,1.46484 0,0.87891 -0.72265,1.85547 -0.72266,0.95703 -1.89453,1.67969 -2.53907,1.5625 -5.9961,1.5625 -4.02344,0 -6.85547,-2.34375 -3.63281,-2.96875 -3.63281,-7.5586 0,-4.41406 3.37891,-7.30468 3.22265,-2.77344 7.83203,-2.77344 z"
         style="font-style:normal;font-variant:normal;font-weight:normal;font-stretch:normal;font-family:'Cooper Black';-inkscape-font-specification:'Cooper Black, ';fill:#214254;fill-opacity:1"
         id="path4161" />
      <path
         d="m 326.55469,105.81976 7.46093,9.35547 q 0.66407,0.82031 1.03516,1.11328 0.37109,0.29297 1.05469,0.50782 1.07422,0.35156 1.5039,0.80078 0.44922,0.44922 0.44922,1.1914 0,0.70313 -0.48828,1.32813 -0.48828,0.60547 -1.25,0.89844 -1.17187,0.44921 -2.92969,0.625 -1.75781,0.19531 -4.88281,0.19531 -3.33984,0 -5,-0.3711 -0.97656,-0.23437 -1.54297,-0.76171 -0.5664,-0.52735 -0.5664,-1.19141 0,-0.83984 0.78125,-1.36719 0.78125,-0.50781 0.78125,-0.85937 0,-0.97657 -2.26563,-3.96485 -0.29297,-0.37109 -0.50781,-0.37109 -0.19531,0 -0.44922,0.3125 -0.9375,1.13281 -1.66016,2.26562 -0.70312,1.13282 -0.70312,1.46485 0,0.3125 0.80078,0.9375 0.78125,0.58594 0.78125,1.48437 0,1.34766 -1.52344,1.81641 -1.99218,0.625 -4.74609,0.625 -3.125,0 -4.80469,-0.52734 -0.68359,-0.21485 -1.15234,-0.80079 -0.46875,-0.58593 -0.46875,-1.23046 0,-0.85938 0.5664,-1.34766 0.58594,-0.48828 1.66016,-0.52734 1.28906,-0.0391 2.1875,-0.76172 0.89844,-0.74219 3.125,-3.55469 l 3.02734,-3.78906 q 0.25391,-0.3125 0.25391,-0.48828 0,-0.11719 -0.25391,-0.42969 l -5,-6.38672 q -1.17187,-1.52344 -1.54296,-1.85547 -0.3711,-0.332031 -1.19141,-0.585937 -1.17188,-0.371094 -1.52344,-0.683594 -0.66406,-0.605469 -0.66406,-1.445312 0,-1.757813 2.77344,-2.382813 2.92968,-0.664062 6.62109,-0.664062 3.88672,0 5.27344,0.507812 0.60547,0.214844 0.97656,0.742188 0.37109,0.527343 0.37109,1.152343 0,0.976563 -0.72265,1.484375 -0.44922,0.3125 -0.54688,0.410157 -0.0781,0.09766 -0.0781,0.3125 0,0.449218 0.72265,1.386723 0.72266,0.9375 1.07422,0.9375 0.3125,0 1.13282,-0.9961 0.82031,-0.996092 0.82031,-1.386717 0,-0.234375 -0.11719,-0.351563 -0.0977,-0.117187 -0.74219,-0.605468 -0.58593,-0.429688 -0.58593,-1.289063 0,-1.230469 1.52343,-1.777344 1.52344,-0.546875 4.96094,-0.546875 2.51953,0 3.88672,0.410157 1.71875,0.507812 1.71875,2.03125 0,1.015625 -0.87891,1.523437 -0.35156,0.195313 -1.83593,0.292969 -0.97657,0.07813 -2.01172,0.859375 -1.01563,0.781252 -2.38282,2.519532 l -2.30468,2.89062 q -0.25391,0.33204 -0.25391,0.48829 0,0.11718 0.25391,0.42968 z"
         style="font-style:normal;font-variant:normal;font-weight:normal;font-stretch:normal;font-family:'Cooper Black';-inkscape-font-specification:'Cooper Black, ';fill:#214254;fill-opacity:1"
         id="path4163" />
      <path
         d="m 348.27344,102.12836 q 1.11328,0 1.11328,1.58203 0,0.0195 0,0.33203 -0.0195,0.3125 -0.0195,0.50781 0,1.05469 0.625,1.05469 0.33203,0 1.03515,-0.83984 1.05469,-1.21094 2.65625,-1.91407 1.60157,-0.72265 3.28125,-0.72265 3.26172,0 4.53125,2.38281 0.48828,0.87891 0.80078,0.87891 0.21485,0 1.01563,-0.78125 2.53906,-2.48047 5.76172,-2.48047 2.51953,0 4.12109,1.38672 1.67969,1.44531 1.67969,4.33593 0,0.625 -0.0391,2.10938 -0.0391,0.50781 -0.0391,3.0664 0,1.64063 -0.0195,2.30469 -0.0195,0.41016 -0.0195,0.58594 0,1.25 0.78125,2.1875 0.46875,0.56641 0.56641,0.76172 0.11719,0.17578 0.11719,0.48828 0,2.5 -5.87891,2.5 -2.59766,0 -4.19922,-0.625 -1.58203,-0.625 -1.58203,-1.64063 0,-0.39062 0.0977,-0.58593 0.11718,-0.21485 0.76171,-1.09375 0.60547,-0.80078 0.60547,-5.33203 0,-2.63672 -0.37109,-3.67188 -0.42969,-1.23047 -1.71875,-1.23047 -0.64453,0 -1.15234,0.41016 -0.48829,0.39062 -0.64454,0.99609 -0.17578,0.70313 -0.19531,3.75 0.0586,3.28125 0.19531,3.98438 0.15625,0.70312 0.9961,1.95312 0.19531,0.29297 0.19531,0.74219 0,2.32422 -6.07422,2.32422 -3.65234,0 -4.92187,-0.54688 -1.01563,-0.42968 -1.01563,-1.52343 0,-0.48829 0.11719,-0.6836 0.13672,-0.19531 0.87891,-0.89844 0.42968,-0.41015 0.54687,-0.76171 0.13672,-0.3711 0.19531,-1.32813 0.13672,-2.14844 0.13672,-4.33594 0,-3.82812 -1.95312,-3.82812 -1.46485,0 -1.73828,1.64062 -0.23438,1.54297 -0.23438,4.41407 0,2.14843 0.0781,2.8125 0.0976,0.66406 0.48828,1.38671 0.46875,0.83985 0.46875,1.36719 0,1.26953 -1.77735,1.75781 -1.93359,0.52735 -4.25781,0.52735 -3.00781,0 -4.41406,-0.46875 -1.40625,-0.48828 -1.40625,-1.52344 0,-0.39062 0.17578,-0.66406 0.19531,-0.27344 0.85937,-0.85938 0.87891,-0.80078 1.01563,-2.20703 0.21484,-2.42187 0.21484,-5.01953 0,-1.85547 -0.19531,-2.57812 -0.17578,-0.74219 -0.78125,-1.19141 -0.58594,-0.44922 -0.76172,-0.68359 -0.15625,-0.23438 -0.15625,-0.64454 0,-1.30859 2.05078,-2.07031 4.94141,-1.77734 7.40235,-1.79687 z"
         style="font-style:normal;font-variant:normal;font-weight:normal;font-stretch:normal;font-family:'Cooper Black';-inkscape-font-specification:'Cooper Black, ';fill:#214254;fill-opacity:1"
         id="path4165" />
      <path
         d="m 388.54687,105.95648 0,6.26953 q 0,4.16016 0.11719,4.84375 0.13672,0.6836 0.97656,1.05469 0.72266,0.3125 0.95704,0.58594 0.2539,0.27344 0.2539,0.78125 0,0.64453 -0.46875,1.17187 -0.44922,0.52735 -1.21094,0.74219 -1.40625,0.42969 -4.74609,0.42969 -3.76953,0 -5.29297,-0.56641 -0.70312,-0.2539 -1.15234,-0.78125 -0.44922,-0.54687 -0.44922,-1.13281 0,-0.46875 0.23437,-0.72266 0.25391,-0.2539 1.07422,-0.60547 0.76172,-0.33203 0.9375,-1.8164 0.3125,-2.53906 0.3125,-7.22656 0,-4.76563 -0.27343,-6.13282 -0.27344,-1.36718 -1.36719,-2.03125 -0.82031,-0.46875 -1.13281,-0.878903 -0.29297,-0.429688 -0.29297,-1.035157 0,-0.957031 0.91797,-1.660156 0.91796,-0.722656 2.92968,-1.328125 1.34766,-0.410156 3.4961,-0.78125 2.14843,-0.371094 3.125,-0.371094 1.54297,0 1.54297,1.914063 0,0.625 -0.19532,2.871094 -0.2539,3.496098 -0.29297,6.406248 z"
         style="font-style:normal;font-variant:normal;font-weight:normal;font-stretch:normal;font-family:'Cooper Black';-inkscape-font-specification:'Cooper Black, ';fill:#214254;fill-opacity:1"
         id="path4167" />
      <path
         d="m 412.62891,121.42523 -2.61719,0.0195 q -2.75391,0.0391 -4.02344,0.11719 -1.13281,0.0977 -1.62109,0.0977 -1.19141,0 -1.89453,-0.60547 -0.6836,-0.60547 -0.6836,-1.44531 0,-0.54688 0.25391,-0.85938 0.2539,-0.3125 1.23047,-0.97656 0.5664,-0.39063 0.78125,-1.21094 0.21484,-0.83984 0.46875,-3.57422 0.37109,-4.25781 0.37109,-10.48828 0,-2.28516 -0.3125,-3.027343 -0.29297,-0.761719 -1.40625,-1.25 -1.28906,-0.546875 -1.28906,-1.601563 0,-0.859375 0.76172,-1.40625 0.78125,-0.546875 1.99218,-0.546875 0.66407,0 1.69922,0.05859 1.71875,0.07813 3.71094,0.07813 1.46484,0 5.76172,-0.117188 1.34766,-0.03906 2.44141,-0.03906 2.59765,0 4.17968,0.429687 1.60157,0.410157 2.77344,1.40625 1.91406,1.621094 1.91406,4.335935 0,1.34766 -0.5664,2.63672 -0.56641,1.26953 -1.52344,2.03125 -0.68359,0.54688 -0.68359,0.9961 0,0.48828 0.82031,0.82031 1.60156,0.64453 2.91015,2.16797 1.34766,1.58203 1.34766,3.96484 0,2.8125 -2.05078,5.13672 -2.71484,3.06641 -8.02734,3.06641 -0.72266,0 -3.55469,-0.0977 -2.57813,-0.0977 -3.16406,-0.11719 z m 1.34765,-21.1914 0,4.02343 q 0,0.95703 0.23438,1.34766 0.2539,0.39062 0.85937,0.39062 1.44531,0 2.12891,-0.8789 0.68359,-0.89844 0.68359,-2.79297 0,-1.83594 -0.70312,-2.832032 -0.70313,-1.015625 -1.99219,-1.015625 -0.68359,0 -0.95703,0.390625 -0.25391,0.371094 -0.25391,1.367192 z m 0,11.25 0,1.85546 q 0,2.5586 0.3711,3.39844 0.37109,0.83985 1.5039,0.83985 2.96875,0 2.96875,-3.47657 0,-4.33593 -3.32031,-4.33593 -0.85938,0 -1.19141,0.37109 -0.33203,0.37109 -0.33203,1.34766 z"
         style="font-style:normal;font-variant:normal;font-weight:normal;font-stretch:normal;font-family:'Cooper Black';-inkscape-font-specification:'Cooper Black, ';fill:#214254;fill-opacity:1"
         id="path4169" />
      <path
         d="m 441.37891,103.10492 0,10.58594 q 0,3.39843 2.24609,3.39843 0.56641,0 1.11328,-0.3125 0.54688,-0.33203 0.76172,-0.80078 0.42969,-0.9375 0.42969,-4.17968 0,-3.20313 -0.21485,-4.375 -0.0781,-0.48829 -0.27343,-0.70313 -0.19532,-0.23437 -0.74219,-0.52734 -1.11328,-0.58594 -1.11328,-1.48438 0,-1.21094 1.91406,-1.67969 3.63281,-0.89843 7.16797,-0.89843 1.97265,0 1.97265,2.08984 0,0.21484 -0.0195,0.87891 -0.0391,0.9375 -0.0586,2.28515 l 0,8.61328 q 0,0.66407 1.13281,1.21094 0.95703,0.46875 0.95703,1.36719 0,1.75781 -4.16015,2.71484 -2.44141,0.56641 -4.72657,0.56641 -0.9375,0 -1.28906,-0.21484 -0.33203,-0.21485 -0.39062,-0.83985 -0.0977,-1.21094 -0.74219,-1.21094 -0.23438,0 -0.42969,0.11719 -0.19531,0.0977 -1.1914,0.78125 -1.97266,1.34766 -4.23829,1.34766 -3.75,0 -5.29296,-2.16797 -1.3086,-1.81641 -1.3086,-6.11328 0,-1.60156 0.0195,-2.73438 0,-0.66406 0,-0.89843 0,-1.67969 -0.3125,-2.46094 -0.29297,-0.80078 -1.09375,-1.25 -0.76172,-0.39063 -0.97656,-0.625 -0.19531,-0.23438 -0.19531,-0.64453 0,-1.48438 2.24609,-1.97266 3.82813,-0.83984 7.65625,-0.83984 1.15235,0 1.15235,0.97656 z"
         style="font-style:normal;font-variant:normal;font-weight:normal;font-stretch:normal;font-family:'Cooper Black';-inkscape-font-specification:'Cooper Black, ';fill:#214254;fill-opacity:1"
         id="path4171" />
      <path
         d="m 468.64453,103.33929 0,11.34766 q 0,1.34766 0.23438,1.97266 0.2539,0.625 0.99609,1.15234 0.60547,0.42969 0.80078,0.74219 0.21484,0.29297 0.21484,0.76172 0,2.51953 -6.38671,2.51953 -3.4375,0 -5.44922,-0.54688 -0.6836,-0.19531 -1.11328,-0.68359 -0.41016,-0.48828 -0.41016,-1.11328 0,-0.52735 0.21484,-0.82031 0.21485,-0.29297 1.09375,-0.9375 0.60547,-0.44922 0.85938,-1.46485 0.2539,-1.01562 0.2539,-3.02734 0,-0.64453 -0.0976,-2.40235 -0.0781,-1.77734 -0.11719,-2.07031 -0.11719,-0.80078 -1.09375,-1.23047 -1.21094,-0.52734 -1.21094,-1.5625 0,-1.23047 1.58203,-1.83593 2.1875,-0.83985 4.6875,-1.42579 2.5,-0.58593 3.86719,-0.58593 1.07422,0 1.07422,1.21093 z m -3.86719,-8.554683 q 1.69922,0 2.69532,0.644531 0.99609,0.625 0.99609,1.699219 0,1.503906 -1.50391,2.382812 -2.38281,1.386721 -5.76172,1.386721 -1.42578,0 -2.26562,-0.54688 -1.13281,-0.703122 -1.13281,-1.953122 0,-1.679688 2.40234,-2.636719 2.44141,-0.976562 4.57031,-0.976562 z"
         style="font-style:normal;font-variant:normal;font-weight:normal;font-stretch:normal;font-family:'Cooper Black';-inkscape-font-specification:'Cooper Black, ';fill:#214254;fill-opacity:1"
         id="path4173" />
      <path
         d="m 483.23437,105.95648 0,6.26953 q 0,4.16016 0.11719,4.84375 0.13672,0.6836 0.97656,1.05469 0.72266,0.3125 0.95704,0.58594 0.2539,0.27344 0.2539,0.78125 0,0.64453 -0.46875,1.17187 -0.44922,0.52735 -1.21094,0.74219 -1.40625,0.42969 -4.74609,0.42969 -3.76953,0 -5.29297,-0.56641 -0.70312,-0.2539 -1.15234,-0.78125 -0.44922,-0.54687 -0.44922,-1.13281 0,-0.46875 0.23437,-0.72266 0.25391,-0.2539 1.07422,-0.60547 0.76172,-0.33203 0.9375,-1.8164 0.3125,-2.53906 0.3125,-7.22656 0,-4.76563 -0.27343,-6.13282 -0.27344,-1.36718 -1.36719,-2.03125 -0.82031,-0.46875 -1.13281,-0.878903 -0.29297,-0.429688 -0.29297,-1.035157 0,-0.957031 0.91797,-1.660156 0.91796,-0.722656 2.92968,-1.328125 1.34766,-0.410156 3.4961,-0.78125 2.14843,-0.371094 3.125,-0.371094 1.54297,0 1.54297,1.914063 0,0.625 -0.19532,2.871094 -0.2539,3.496098 -0.29297,6.406248 z"
         style="font-style:normal;font-variant:normal;font-weight:normal;font-stretch:normal;font-family:'Cooper Black';-inkscape-font-specification:'Cooper Black, ';fill:#214254;fill-opacity:1"
         id="path4175" />
      <path
         d="m 509.52344,96.347107 0,17.832033 q 0,1.52344 0.11718,1.95312 0.13672,0.42969 0.72266,0.83985 0.70313,0.48828 0.9375,0.85937 0.25391,0.3711 0.25391,0.89844 0,1.5625 -3.14453,2.38281 -2.83204,0.72266 -5.66407,0.72266 -0.625,0 -0.82031,-0.19531 -0.17578,-0.17579 -0.23437,-0.87891 -0.0977,-0.99609 -0.70313,-0.99609 -0.33203,0 -1.03516,0.58593 -1.99218,1.6211 -4.43359,1.6211 -3.02734,0 -5.44922,-2.2461 -1.42578,-1.34765 -2.30469,-3.10547 -1.17187,-2.28515 -1.17187,-4.6289 0,-2.75391 1.52344,-5.3125 1.40625,-2.36328 3.82812,-3.63281 2.03125,-1.05469 4.00391,-1.05469 2.26562,0 4.0625,1.01562 0.29297,0.15625 0.46875,0.15625 0.625,0 0.625,-1.67968 0,-0.72266 -0.35156,-1.09375 -0.33204,-0.39063 -1.21094,-0.664067 -1.23047,-0.390625 -1.23047,-1.367188 0,-1.425781 2.83203,-2.226562 5,-1.386719 6.69922,-1.386719 1.67969,0 1.67969,1.601563 z m -10.60547,9.824223 q -1.26953,0 -2.01172,1.34765 -0.99609,1.79688 -0.99609,4.72656 0,2.65625 0.95703,4.00391 0.68359,0.97656 1.85547,0.97656 1.26953,0 1.83593,-1.46484 0.58594,-1.48438 0.58594,-4.76563 0,-3.00781 -0.68359,-4.0039 -0.52735,-0.78125 -1.54297,-0.82031 z"
         style="font-style:normal;font-variant:normal;font-weight:normal;font-stretch:normal;font-family:'Cooper Black';-inkscape-font-specification:'Cooper Black, ';fill:#214254;fill-opacity:1"
         id="path4177" />
      <path
         d="m 530.75391,112.69476 -9.17969,0 q -0.60547,0 -0.60547,0.52735 0,1.26953 1.36719,2.40234 1.38672,1.11328 2.96875,1.11328 0.9375,0 2.07031,-0.35156 1.15234,-0.37109 1.89453,-0.89844 0.66406,-0.46875 1.05469,-0.46875 0.50781,0 0.99609,0.625 0.48828,0.625 0.48828,1.28906 0,1.40625 -1.75781,2.71485 -3.10547,2.32422 -7.16797,2.32422 -4.10156,0 -6.875,-2.38282 -1.34765,-1.17187 -2.22656,-2.83203 -1.15234,-2.20703 -1.15234,-4.64843 0,-3.28125 1.99218,-5.89844 1.71875,-2.26563 4.375,-3.37891 1.99219,-0.83984 4.31641,-0.83984 3.71094,0 6.30859,2.10937 1.3086,1.05469 2.10938,2.5 0.91797,1.64063 0.91797,3.20313 0,1.26953 -0.52735,2.08984 -0.52734,0.80078 -1.36718,0.80078 z m -8.67188,-3.65234 1.97266,0 q 1.25,0 1.25,-1.15234 0,-1.05469 -0.60547,-1.71875 -0.60547,-0.66407 -1.58203,-0.66407 -1.09375,0 -1.71875,0.85938 -0.58594,0.80078 -0.58594,1.62109 0,0.58594 0.27344,0.82031 0.29297,0.23438 0.99609,0.23438 z"
         style="font-style:normal;font-variant:normal;font-weight:normal;font-stretch:normal;font-family:'Cooper Black';-inkscape-font-specification:'Cooper Black, ';fill:#214254;fill-opacity:1"
         id="path4179" />
      <path
         d="m 543.07812,102.10883 q 1.03516,0 1.25,0.29296 0.23438,0.29297 0.41016,1.875 0.0977,0.85938 0.60547,0.85938 0.39062,0 0.74219,-0.56641 1.5625,-2.4414 4.08203,-2.4414 1.77734,0 2.91015,1.15234 0.54688,0.56641 0.89844,1.46484 0.35156,0.87891 0.35156,1.69922 0,0.91797 -0.42968,1.89453 -0.42969,0.95704 -1.11328,1.58204 -1.25,1.1914 -3.06641,1.1914 -0.99609,0 -1.67969,-0.35156 -0.66406,-0.35156 -1.75781,-1.42578 -0.41016,-0.41016 -0.76172,-0.41016 -0.54687,0 -0.72266,0.625 -0.15625,0.60547 -0.15625,2.57813 0,2.94922 0.21485,4.02343 0.13672,0.58594 0.37109,0.82032 0.25391,0.21484 1.05469,0.44922 1.75781,0.52734 1.75781,1.83593 0,0.80078 -0.5664,1.40625 -0.56641,0.58594 -1.50391,0.78125 -1.875,0.39063 -5.50781,0.39063 -3.45703,0 -5.25391,-0.60547 -1.60156,-0.54688 -1.60156,-1.89453 0,-1.01563 1.17187,-1.81641 0.56641,-0.37109 0.78125,-0.66406 0.21485,-0.3125 0.29297,-0.83984 0.3125,-1.77735 0.3125,-6.58204 0,-0.8789 -0.19531,-1.25 -0.19531,-0.39062 -0.78125,-0.625 -1.38672,-0.54687 -1.38672,-1.58203 0,-0.9375 0.95703,-1.60156 0.95703,-0.68359 3.20313,-1.34766 3.00781,-0.89843 5.11718,-0.91796 z"
         style="font-style:normal;font-variant:normal;font-weight:normal;font-stretch:normal;font-family:'Cooper Black';-inkscape-font-specification:'Cooper Black, ';fill:#214254;fill-opacity:1"
         id="path4181" />
    </g>
  </g>
</svg>
