<?xml version="1.0" encoding="UTF-8" standalone="no"?>
<!-- Created with Inkscape (http://www.inkscape.org/) -->

<svg
   xmlns:dc="http://purl.org/dc/elements/1.1/"
   xmlns:cc="http://creativecommons.org/ns#"
   xmlns:rdf="http://www.w3.org/1999/02/22-rdf-syntax-ns#"
   xmlns:svg="http://www.w3.org/2000/svg"
   xmlns="http://www.w3.org/2000/svg"
   xmlns:sodipodi="http://sodipodi.sourceforge.net/DTD/sodipodi-0.dtd"
   xmlns:inkscape="http://www.inkscape.org/namespaces/inkscape"
   width="500"
   height="500"
   viewBox="0 0 500.00001 500.00001"
   id="svg2"
   version="1.1"
   inkscape:version="0.91 r13725"
   sodipodi:docname="watermark.svg">
  <defs
     id="defs4" />
  <sodipodi:namedview
     id="base"
     pagecolor="#ffffff"
     bordercolor="#666666"
     borderopacity="1.0"
     inkscape:pageopacity="0.0"
     inkscape:pageshadow="2"
     inkscape:zoom="0.98994949"
     inkscape:cx="244.73964"
     inkscape:cy="251.55635"
     inkscape:document-units="px"
     inkscape:current-layer="layer1"
     showgrid="false"
     units="px"
     inkscape:window-width="1366"
     inkscape:window-height="705"
     inkscape:window-x="-8"
     inkscape:window-y="-8"
     inkscape:window-maximized="1" />
  <metadata
     id="metadata7">
    <rdf:RDF>
      <cc:Work
         rdf:about="">
        <dc:format>image/svg+xml</dc:format>
        <dc:type
           rdf:resource="http://purl.org/dc/dcmitype/StillImage" />
        <dc:title />
      </cc:Work>
    </rdf:RDF>
  </metadata>
  <g
     inkscape:label="Layer 1"
     inkscape:groupmode="layer"
     id="layer1"
     transform="translate(0,-552.36216)">
    <g
       id="g3355"
       transform="matrix(0.8932254,0,0,0.83325219,-668.73901,252.59879)"
       style="fill:#214254;fill-opacity:1">
      <path
         style="fill:#214254;fill-opacity:1"
         d="m 1002.1696,871.60763 c 0.7219,-0.28887 1.5844,-0.25335 1.9167,0.0789 0.3323,0.33229 -0.2584,0.56864 -1.3125,0.52522 -1.165,-0.048 -1.4019,-0.28494 -0.6042,-0.60416 z m 40,0 c 0.7219,-0.28887 1.5844,-0.25335 1.9167,0.0789 0.3323,0.33229 -0.2583,0.56864 -1.3125,0.52522 -1.165,-0.048 -1.4019,-0.28494 -0.6042,-0.60416 z m -32,-21 c 0.7219,-0.28887 1.5844,-0.25335 1.9167,0.0789 0.3323,0.33229 -0.2584,0.56864 -1.3125,0.52522 -1.165,-0.048 -1.4019,-0.28494 -0.6042,-0.60416 z m 24,0 c 0.7219,-0.28887 1.5844,-0.25335 1.9167,0.0789 0.3323,0.33229 -0.2583,0.56864 -1.3125,0.52522 -1.165,-0.048 -1.4019,-0.28494 -0.6042,-0.60416 z M 858.22956,810.54074 c -1.24387,-1.58606 -1.2085,-1.62143 0.37756,-0.37756 0.9625,0.75485 1.75,1.54235 1.75,1.75 0,0.82304 -0.82119,0.29331 -2.12756,-1.37244 z m 314.12754,-15.62756 c 0,-0.20765 0.7875,-0.99515 1.75,-1.75 1.5861,-1.24387 1.6215,-1.2085 0.3776,0.37756 -1.3064,1.66575 -2.1276,2.19548 -2.1276,1.37244 z m -337.12754,-7.37244 c -1.24387,-1.58606 -1.2085,-1.62143 0.37756,-0.37756 0.9625,0.75485 1.75,1.54235 1.75,1.75 0,0.82304 -0.82119,0.29331 -2.12756,-1.37244 z m 373.12754,1.37244 c 0,-0.20765 0.7875,-0.99515 1.75,-1.75 1.5861,-1.24387 1.6215,-1.2085 0.3776,0.37756 -1.3064,1.66575 -2.1276,2.19548 -2.1276,1.37244 z m -17,-13 c 0,-0.20765 0.7875,-0.99515 1.75,-1.75 1.5861,-1.24387 1.6215,-1.2085 0.3776,0.37756 -1.3064,1.66575 -2.1276,2.19548 -2.1276,1.37244 z M 886.03772,675.54175 c 13.29933,-0.15744 35.34933,-0.15759 49,-3.4e-4 13.65067,0.15725 2.7694,0.28606 -24.1806,0.28625 -26.95,1.8e-4 -38.11873,-0.12847 -24.8194,-0.28591 z m 363.39838,-38.83434 c 0.048,-1.16495 0.2849,-1.4019 0.6041,-0.60417 0.2889,0.72187 0.2534,1.58438 -0.079,1.91667 -0.3323,0.33229 -0.5686,-0.25834 -0.5252,-1.3125 z m -454.00003,-1 c 0.048,-1.16495 0.28494,-1.4019 0.60416,-0.60417 0.28888,0.72187 0.25335,1.58438 -0.0789,1.91667 -0.33229,0.33229 -0.56864,-0.25834 -0.52522,-1.3125 z m 0,-24 c 0.048,-1.16495 0.28494,-1.4019 0.60416,-0.60417 0.28888,0.72187 0.25335,1.58437 -0.0789,1.91667 -0.33229,0.33229 -0.56864,-0.25834 -0.52522,-1.3125 z m 454.00003,-1 c 0.048,-1.16495 0.2849,-1.4019 0.6041,-0.60417 0.2889,0.72187 0.2534,1.58437 -0.079,1.91667 -0.3323,0.33229 -0.5686,-0.25834 -0.5252,-1.3125 z m -475.00003,-7 c 0.048,-1.16495 0.28494,-1.4019 0.60416,-0.60417 0.28887,0.72187 0.25335,1.58437 -0.0789,1.91667 -0.3323,0.33229 -0.56864,-0.25834 -0.52522,-1.3125 z m 254.46373,-70.34757 c -0.3164,-0.512 -0.193,-1.1672 0.2743,-1.45601 0.4674,-0.28881 0.8497,0.13009 0.8497,0.9309 0,1.68617 -0.3153,1.83349 -1.124,0.52511 z m -18.7302,-136.75221 c 0.7219,-0.28888 1.5844,-0.25335 1.9167,0.079 0.3323,0.33229 -0.2584,0.56864 -1.3125,0.52522 -1.165,-0.048 -1.4019,-0.28494 -0.6042,-0.60417 z m -8,-21 c 0.7219,-0.28887 1.5844,-0.25335 1.9167,0.0789 0.3323,0.3323 -0.2584,0.56864 -1.3125,0.52522 -1.165,-0.048 -1.4019,-0.28494 -0.6042,-0.60416 z"
         id="path3369"
         inkscape:connector-curvature="0" />
      <path
         style="fill:#214254;fill-opacity:1"
         d="m 1037.1696,850.60763 c 0.7219,-0.28887 1.5844,-0.25335 1.9167,0.0789 0.3323,0.33229 -0.2583,0.56864 -1.3125,0.52522 -1.165,-0.048 -1.4019,-0.28494 -0.6042,-0.60416 z m 2.3616,-175.06661 c 26.2208,-0.14827 69.4208,-0.14831 96,-10e-5 26.5793,0.14822 5.1259,0.26953 -47.6741,0.26958 -52.8,5e-5 -74.5466,-0.12121 -48.3259,-0.26948 z m -32.3616,-278.93339 c 0.7219,-0.28888 1.5844,-0.25335 1.9167,0.079 0.3323,0.33229 -0.2584,0.56864 -1.3125,0.52522 -1.165,-0.048 -1.4019,-0.28494 -0.6042,-0.60417 z m 30,0 c 0.7219,-0.28888 1.5844,-0.25335 1.9167,0.079 0.3323,0.33229 -0.2583,0.56864 -1.3125,0.52522 -1.165,-0.048 -1.4019,-0.28494 -0.6042,-0.60417 z"
         id="path3367"
         inkscape:connector-curvature="0" />
      <path
         style="fill:#214254;fill-opacity:1"
         d="m 1007.1696,871.60763 c 0.7219,-0.28887 1.5844,-0.25335 1.9167,0.0789 0.3323,0.33229 -0.2584,0.56864 -1.3125,0.52522 -1.165,-0.048 -1.4019,-0.28494 -0.6042,-0.60416 z m 30,0 c 0.7219,-0.28887 1.5844,-0.25335 1.9167,0.0789 0.3323,0.33229 -0.2583,0.56864 -1.3125,0.52522 -1.165,-0.048 -1.4019,-0.28494 -0.6042,-0.60416 z m 145.6875,-86.31689 c 0.9955,-1.1 2.035,-2 2.31,-2 0.275,0 -0.3145,0.9 -1.31,2 -0.9955,1.1 -2.035,2 -2.31,2 -0.275,0 0.3145,-0.9 1.31,-2 z m -117,-116.63407 c 7.0697,-0.73995 16.2789,-0.80732 15.8487,-0.11593 -0.2567,0.4125 -4.6027,0.67798 -9.6577,0.58996 -5.055,-0.088 -7.841,-0.30133 -6.191,-0.47403 z m 204.579,-29.94926 c 0.048,-1.16495 0.2849,-1.4019 0.6041,-0.60417 0.2889,0.72187 0.2534,1.58438 -0.079,1.91667 -0.3323,0.33229 -0.5686,-0.25834 -0.5252,-1.3125 z m -496.00003,-31 c 0.048,-1.16495 0.28494,-1.4019 0.60416,-0.60417 0.28887,0.72187 0.25335,1.58437 -0.0789,1.91667 -0.3323,0.33229 -0.56864,-0.25834 -0.52522,-1.3125 z m 496.00003,0 c 0.048,-1.16495 0.2849,-1.4019 0.6041,-0.60417 0.2889,0.72187 0.2534,1.58437 -0.079,1.91667 -0.3323,0.33229 -0.5686,-0.25834 -0.5252,-1.3125 z m -475.00003,-1 c 0.048,-1.16495 0.28494,-1.4019 0.60416,-0.60417 0.28888,0.72187 0.25335,1.58437 -0.0789,1.91667 -0.33229,0.33229 -0.56864,-0.25834 -0.52522,-1.3125 z m 387.86723,-144.16667 -3.4462,-3.75 3.75,3.44617 c 2.0625,1.89539 3.75,3.58289 3.75,3.75 0,0.76362 -0.8462,0.0442 -4.0538,-3.44617 z m -145.1337,-86.93311 c 0.7219,-0.28887 1.5844,-0.25335 1.9167,0.0789 0.3323,0.3323 -0.2583,0.56864 -1.3125,0.52522 -1.165,-0.048 -1.4019,-0.28494 -0.6042,-0.60416 z"
         id="path3365"
         inkscape:connector-curvature="0" />
      <path
         style="fill:#214254;fill-opacity:1"
         d="m 852.22956,804.54074 c -1.24387,-1.58606 -1.2085,-1.62143 0.37756,-0.37756 0.9625,0.75485 1.75,1.54235 1.75,1.75 0,0.82304 -0.82119,0.29331 -2.12756,-1.37244 z m 339.12754,1.37244 c 0,-0.20765 0.7875,-0.99515 1.75,-1.75 1.5861,-1.24387 1.6215,-1.2085 0.3776,0.37756 -1.3064,1.66575 -2.1276,2.19548 -2.1276,1.37244 z m -350.07567,-12.37244 -2.42431,-2.75 2.75,2.42431 c 2.57029,2.26589 3.20859,3.07569 2.42431,3.07569 -0.17912,0 -1.41662,-1.2375 -2.75,-2.75 z m 362.57567,-0.25 c 0.9955,-1.1 2.035,-2 2.31,-2 0.275,0 -0.3145,0.9 -1.31,2 -0.9955,1.1 -2.035,2 -2.31,2 -0.275,0 0.3145,-0.9 1.31,-2 z m -25,-4 c 0.9955,-1.1 2.035,-2 2.31,-2 0.275,0 -0.3145,0.9 -1.31,2 -0.9955,1.1 -2.035,2 -2.31,2 -0.275,0 0.3145,-0.9 1.31,-2 z m -317.53414,-4.75 -5.46584,-5.75 5.75,5.46584 c 5.34193,5.07794 6.20809,6.03416 5.46584,6.03416 -0.15629,0 -2.74379,-2.5875 -5.75,-5.75 z m 326.03414,-3.75 c 1.2918,-1.375 2.5737,-2.5 2.8487,-2.5 0.275,0 -0.5569,1.125 -1.8487,2.5 -1.2917,1.375 -2.5736,2.5 -2.8486,2.5 -0.275,0 0.5569,-1.125 1.8486,-2.5 z m -382.49998,-79.5 -4,-0.71619 3.69098,-0.1419 c 2.03004,-0.078 3.9691,0.30809 4.30902,0.85809 0.33992,0.55 0.47898,0.93614 0.30902,0.85809 -0.16996,-0.078 -2.10902,-0.46419 -4.30902,-0.85809 z m 434.26168,-0.70726 c 1.2439,-0.23919 3.0439,-0.23011 4,0.0202 0.9561,0.25029 -0.062,0.446 -2.2617,0.4349 -2.2,-0.0111 -2.9822,-0.21589 -1.7383,-0.45508 z M 774.43607,636.70741 c 0.048,-1.16495 0.28494,-1.4019 0.60416,-0.60417 0.28887,0.72187 0.25335,1.58438 -0.0789,1.91667 -0.3323,0.33229 -0.56864,-0.25834 -0.52522,-1.3125 z m 0,-26 c 0.048,-1.16495 0.28494,-1.4019 0.60416,-0.60417 0.28887,0.72187 0.25335,1.58437 -0.0789,1.91667 -0.3323,0.33229 -0.56864,-0.25834 -0.52522,-1.3125 z m 496.00003,0 c 0.048,-1.16495 0.2849,-1.4019 0.6041,-0.60417 0.2889,0.72187 0.2534,1.58437 -0.079,1.91667 -0.3323,0.33229 -0.5686,-0.25834 -0.5252,-1.3125 z m -82.2065,-143.16667 c -1.2439,-1.58606 -1.2085,-1.62143 0.3775,-0.37756 1.6658,1.30637 2.1955,2.12756 1.3725,2.12756 -0.2077,0 -0.9952,-0.7875 -1.75,-1.75 z m -331.87248,0.37244 c 0,-0.20765 0.7875,-0.99515 1.75,-1.75 1.58606,-1.24387 1.62143,-1.2085 0.37756,0.37756 -1.30637,1.66575 -2.12756,2.19548 -2.12756,1.37244 z m 5,-4.93535 c 0,-0.1721 1.4625,-1.6346 3.25,-3.25 l 3.25,-2.93709 -2.93709,3.25 c -2.73778,3.02945 -3.56291,3.70965 -3.56291,2.93709 z m 316.87248,-5.43709 c -1.2439,-1.58606 -1.2085,-1.62143 0.3775,-0.37756 0.9625,0.75485 1.75,1.54235 1.75,1.75 0,0.82304 -0.8212,0.29331 -2.1275,-1.37244 z m -337.37248,-3.25 c 0.99549,-1.1 2.03498,-2 2.30998,-2 0.27499,0 -0.31449,0.9 -1.30998,2 -0.99549,1.1 -2.03498,2 -2.30998,2 -0.27499,0 0.31449,-0.9 1.30998,-2 z m 362.90498,-0.25 -1.905,-2.25 2.25,1.90499 c 2.1145,1.79022 2.7053,2.59501 1.905,2.59501 -0.1897,0 -1.2022,-1.0125 -2.25,-2.25 z m -12,-12 -1.905,-2.25 2.25,1.90499 c 2.1145,1.79022 2.7053,2.59501 1.905,2.59501 -0.1897,0 -1.2022,-1.0125 -2.25,-2.25 z m -339.40498,0.87244 c 0,-0.20765 0.7875,-0.99515 1.75,-1.75 1.58606,-1.24387 1.62143,-1.2085 0.37756,0.37756 -1.30637,1.66575 -2.12756,2.19548 -2.12756,1.37244 z m 156.81248,-67.30555 c 0.7219,-0.28887 1.5844,-0.25335 1.9167,0.0789 0.3323,0.3323 -0.2584,0.56864 -1.3125,0.52522 -1.165,-0.048 -1.4019,-0.28494 -0.6042,-0.60416 z m 26,0 c 0.7219,-0.28887 1.5844,-0.25335 1.9167,0.0789 0.3323,0.3323 -0.2583,0.56864 -1.3125,0.52522 -1.165,-0.048 -1.4019,-0.28494 -0.6042,-0.60416 z"
         id="path3363"
         inkscape:connector-curvature="0" />
      <path
         style="fill:#214254;fill-opacity:1"
         d="m 1012.1071,871.62846 c 0.6875,-0.27741 1.8125,-0.27741 2.5,0 0.6875,0.27741 0.125,0.50439 -1.25,0.50439 -1.375,0 -1.9375,-0.22698 -1.25,-0.50439 z m 19,0 c 0.6875,-0.27741 1.8125,-0.27741 2.5,0 0.6875,0.27741 0.125,0.50439 -1.25,0.50439 -1.375,0 -1.9375,-0.22698 -1.25,-0.50439 z m -183.80381,-72.08772 -3.44617,-3.75 3.75,3.44617 c 3.49042,3.20761 4.20979,4.05383 3.44617,4.05383 -0.16711,0 -1.85461,-1.6875 -3.75,-3.75 z m 350.55381,-0.25 c 2.1483,-2.2 4.1309,-4 4.4059,-4 0.275,0 -1.2576,1.8 -3.4059,4 -2.1482,2.2 -4.1309,4 -4.4059,4 -0.275,0 1.2577,-1.8 3.4059,-4 z m -144.6117,-98.29298 c 0.4387,-0.43614 4.5808,-0.65768 9.2047,-0.49231 l 8.407,0.30068 -9.2046,0.4923 c -5.0626,0.27077 -8.8457,0.13547 -8.4071,-0.30067 z m -259.63828,-0.42327 c 1.5125,-0.22913 3.9875,-0.22913 5.5,0 1.5125,0.22912 0.275,0.41659 -2.75,0.41659 -3.025,0 -4.2625,-0.18747 -2.75,-0.41659 z m 452.99998,0 c 1.5125,-0.22913 3.9875,-0.22913 5.5,0 1.5125,0.22912 0.275,0.41659 -2.75,0.41659 -3.025,0 -4.2625,-0.18747 -2.75,-0.41659 z M 774.43607,633.70741 c 0.048,-1.16495 0.28494,-1.4019 0.60416,-0.60417 0.28887,0.72187 0.25335,1.58438 -0.0789,1.91667 -0.3323,0.33229 -0.56864,-0.25834 -0.52522,-1.3125 z m 496.07893,-0.41667 c 0,-1.375 0.227,-1.9375 0.5044,-1.25 0.2774,0.6875 0.2774,1.8125 0,2.5 -0.2774,0.6875 -0.5044,0.125 -0.5044,-1.25 z m -19.9057,-9.5 c 0.011,-2.2 0.2159,-2.98225 0.4551,-1.73834 0.2392,1.24391 0.2301,3.04391 -0.02,4 -0.2503,0.95609 -0.446,-0.0617 -0.4349,-2.26166 z M 774.43607,613.70741 c 0.048,-1.16495 0.28494,-1.4019 0.60416,-0.60417 0.28887,0.72187 0.25335,1.58437 -0.0789,1.91667 -0.3323,0.33229 -0.56864,-0.25834 -0.52522,-1.3125 z m 496.00003,0 c 0.048,-1.16495 0.2849,-1.4019 0.6041,-0.60417 0.2889,0.72187 0.2534,1.58437 -0.079,1.91667 -0.3323,0.33229 -0.5686,-0.25834 -0.5252,-1.3125 z M 847.31533,448.04074 c 4.14396,-4.41519 5.04179,-5.20909 5.04179,-4.45821 0,0.16049 -2.1375,2.29799 -4.75,4.75 l -4.75,4.45821 4.45821,-4.75 z m 350.49477,0 -3.953,-4.25 4.25,3.95295 c 2.3375,2.17412 4.25,4.08662 4.25,4.25 0,0.75658 -0.8708,-4.9e-4 -4.547,-3.95295 z m -175.6405,-52.43311 c 0.7219,-0.28888 1.5844,-0.25335 1.9167,0.079 0.3323,0.33229 -0.2584,0.56864 -1.3125,0.52522 -1.165,-0.048 -1.4019,-0.28494 -0.6042,-0.60417 z m -10,-20 c 0.7219,-0.28887 1.5844,-0.25335 1.9167,0.0789 0.3323,0.3323 -0.2584,0.56864 -1.3125,0.52522 -1.165,-0.048 -1.4019,-0.28494 -0.6042,-0.60416 z m 20,0 c 0.7219,-0.28887 1.5844,-0.25335 1.9167,0.0789 0.3323,0.3323 -0.2583,0.56864 -1.3125,0.52522 -1.165,-0.048 -1.4019,-0.28494 -0.6042,-0.60416 z"
         id="path3361"
         inkscape:connector-curvature="0" />
      <path
         style="fill:#214254;fill-opacity:1"
         d="m 1015.3571,871.90015 c 0,-0.21483 1.5435,-0.57079 3.4299,-0.79101 1.8864,-0.22023 3.2098,-0.0445 2.941,0.39059 -0.484,0.78299 -6.3709,1.153 -6.3709,0.40042 z m 10.25,-0.29874 c 0.9625,-0.25152 2.5375,-0.25152 3.5,0 0.9625,0.25153 0.175,0.45733 -1.75,0.45733 -1.925,0 -2.7125,-0.2058 -1.75,-0.45733 z M 859.22956,810.54074 c -1.24387,-1.58606 -1.2085,-1.62143 0.37756,-0.37756 0.9625,0.75485 1.75,1.54235 1.75,1.75 0,0.82304 -0.82119,0.29331 -2.12756,-1.37244 z m 332.12754,-33.62756 c 0,-0.20765 0.7875,-0.99515 1.75,-1.75 1.5861,-1.24387 1.6215,-1.2085 0.3776,0.37756 -1.3064,1.66575 -2.1276,2.19548 -2.1276,1.37244 z M 788.10712,700.62846 c 0.6875,-0.27741 1.8125,-0.27741 2.5,0 0.6875,0.27741 0.125,0.50439 -1.25,0.50439 -1.375,0 -1.9375,-0.22698 -1.25,-0.50439 z m 466.99998,0 c 0.6875,-0.27741 1.8125,-0.27741 2.5,0 0.6875,0.27741 0.125,0.50439 -1.25,0.50439 -1.375,0 -1.9375,-0.22698 -1.25,-0.50439 z M 774.58912,629.29074 c 0,-1.925 0.2058,-2.7125 0.45733,-1.75 0.25152,0.9625 0.25152,2.5375 0,3.5 -0.25153,0.9625 -0.45733,0.175 -0.45733,-1.75 z m 475.96298,0.5 c 0.02,-1.65 0.2445,-2.20394 0.498,-1.23097 0.2536,0.97297 0.2369,2.32297 -0.037,3 -0.2739,0.67703 -0.4814,-0.11903 -0.461,-1.76903 z m 20,-1 c 0.02,-1.65 0.2445,-2.20394 0.498,-1.23097 0.2536,0.97297 0.2369,2.32297 -0.037,3 -0.2739,0.67703 -0.4814,-0.11903 -0.461,-1.76903 z m -475.87491,-5.5 c 0,-3.575 0.1815,-5.0375 0.40333,-3.25 0.22182,1.7875 0.22182,4.7125 0,6.5 -0.22183,1.7875 -0.40333,0.325 -0.40333,-3.25 z m -20.12512,-5.5 c 0.0204,-1.65 0.2445,-2.20394 0.49804,-1.23097 0.25354,0.97297 0.23687,2.32297 -0.0371,3 -0.27393,0.67703 -0.48137,-0.11903 -0.46099,-1.76903 z m 476.00003,0 c 0.02,-1.65 0.2445,-2.20394 0.498,-1.23097 0.2536,0.97297 0.2369,2.32297 -0.037,3 -0.2739,0.67703 -0.4814,-0.11903 -0.461,-1.76903 z m 19.9629,-0.5 c 0,-1.375 0.227,-1.9375 0.5044,-1.25 0.2774,0.6875 0.2774,1.8125 0,2.5 -0.2774,0.6875 -0.5044,0.125 -0.5044,-1.25 z M 851.35712,472.91318 c 0,-0.20765 0.7875,-0.99515 1.75,-1.75 1.58606,-1.24387 1.62143,-1.2085 0.37756,0.37756 -1.30637,1.66575 -2.12756,2.19548 -2.12756,1.37244 z m 25,-49 c 0,-0.20765 0.7875,-0.99515 1.75,-1.75 1.58606,-1.24387 1.62143,-1.2085 0.37756,0.37756 -1.30637,1.66575 -2.12756,2.19548 -2.12756,1.37244 z m 290.87248,-1.37244 c -1.2439,-1.58606 -1.2085,-1.62143 0.3775,-0.37756 1.6658,1.30637 2.1955,2.12756 1.3725,2.12756 -0.2077,0 -0.9952,-0.7875 -1.75,-1.75 z m -150.6225,-26.93933 c 0.9625,-0.25152 2.5375,-0.25152 3.5,0 0.9625,0.25153 0.175,0.45733 -1.75,0.45733 -1.925,0 -2.7125,-0.2058 -1.75,-0.45733 z m 9,0 c 0.9625,-0.25152 2.5375,-0.25152 3.5,0 0.9625,0.25153 0.175,0.45733 -1.75,0.45733 -1.925,0 -2.7125,-0.2058 -1.75,-0.45733 z m -9.4883,-20.01793 c 1.2439,-0.23919 3.0439,-0.23011 4,0.0202 0.9561,0.25029 -0.062,0.446 -2.2617,0.4349 -2.2,-0.0111 -2.9822,-0.21589 -1.7383,-0.45508 z m 11.5074,0.0143 c 0.9729,-0.25354 2.3229,-0.23687 3,0.037 0.677,0.27393 -0.1191,0.48137 -1.7691,0.46099 -1.65,-0.0204 -2.2039,-0.2445 -1.2309,-0.49804 z"
         id="path3359"
         inkscape:connector-curvature="0" />
      <path
         style="fill:#214254;fill-opacity:1"
         d="m 1008.3571,871.24627 c -39.79896,-2.18156 -79.72701,-14.62167 -114.49998,-35.67399 -31.45465,-19.04333 -63.42407,-51.02432 -82.75159,-82.78154 -7.07194,-11.61996 -12.78696,-23.03644 -18.19065,-36.33816 -6.87742,-16.92945 -7.42549,-15.16184 4.70111,-15.16184 l 10.39364,0 4.30885,10.25 c 27.6253,65.7157 84.43346,115.10198 152.7978,132.83504 13.62904,3.53524 35.02942,6.90372 43.90222,6.91035 l 6.1614,0.005 3.5161,10.5 c 1.9339,5.775 3.4362,10.43149 3.3386,10.34776 -0.098,-0.0837 -6.2525,-0.48523 -13.6775,-0.89223 z m 15.3386,-0.45553 c 0.199,-0.55 1.8408,-5.1625 3.6484,-10.25 l 3.2867,-9.25 6.1132,-0.005 c 8.8595,-0.007 30.8368,-3.4395 43.9152,-6.85953 68.4933,-17.9111 125.3282,-67.3532 152.7555,-132.88586 l 4.2899,-10.25 10.3937,0 c 12.1266,0 11.5785,-1.76761 4.7011,15.16184 -23.0147,56.6532 -65.7212,102.70244 -119.9423,129.33071 -24.3558,11.96129 -43.5885,18.21393 -69.4994,22.59459 -14.246,2.40851 -40.2321,3.98966 -39.662,2.41325 z M 986.46237,735.98061 c -20.01711,-61.70443 -36.57565,-112.68173 -36.79675,-113.28289 -0.2211,-0.60116 2.75008,-3.39285 6.60262,-6.20376 l 7.00462,-5.11074 4.9621,15.20376 c 2.72916,8.36207 15.84694,48.72876 29.15063,89.70376 13.30371,40.975 24.54181,75.14597 24.97361,75.93549 0.6933,1.26777 5.541,-12.9795 28.3893,-83.43549 l 2.27,-7 8.7494,-0.2901 c 8.6921,-0.2882 8.7447,-0.27525 8.0299,1.97713 -0.7057,2.22325 -46.2543,142.64877 -46.709,144.00284 -0.1274,0.37942 -16.6093,-49.79558 -36.62643,-111.5 z m -201.6365,-42.42702 c -3.05377,-10.47127 -6.37451,-26.58717 -7.98723,-38.76285 -2.07284,-15.6495 -2.09553,-47.12582 -0.0449,-62.29847 7.58125,-56.09428 31.3291,-104.21115 70.96201,-143.78019 12.38134,-12.36139 26.51014,-24.42134 28.61076,-24.42134 0.3911,0 1.98833,4.32506 3.54939,9.61124 l 2.83828,9.61124 -5.44852,4.60622 c -43.9492,37.15499 -71.66988,86.53161 -80.06271,142.60928 -3.98614,26.63387 -2.59472,59.14496 3.65464,85.39207 1.35275,5.68153 2.45955,10.4645 2.45955,10.62884 0,0.31655 -13.67681,10.66751 -15.6753,11.86348 -0.78745,0.47123 -1.72993,-1.19843 -2.85595,-5.05952 z m 466.48133,0.20223 c -4.0975,-3.06423 -7.8135,-5.93336 -8.2577,-6.37584 -0.4442,-0.44249 0.092,-4.35608 1.1914,-8.69688 14.7873,-58.38161 4.4618,-124.35833 -27.371,-174.89236 -12.3818,-19.65583 -32.1661,-42.40108 -48.9496,-56.2756 l -4.9368,-4.08114 2.8266,-9.57163 c 1.5546,-5.2644 3.249,-9.57163 3.7654,-9.57163 1.5977,0 15.7916,11.9148 26.1424,21.94483 20.5172,19.88141 36.8021,42.38672 49.6066,68.55517 8.7581,17.89863 13.6336,31.01704 17.9523,48.30388 10.0201,40.10759 9.8182,83.80551 -0.5715,123.69612 -1.4325,5.5 -2.9068,10.57069 -3.2763,11.2682 -0.4738,0.89455 -2.8667,-0.37326 -8.1218,-4.30312 z m -439.83494,-2.30908 c 3.80492,-2.942 185.85902,-135.09296 188.40716,-136.76257 2.17758,-1.42681 2.65958,-1.25165 8.89008,3.23042 3.6232,2.60647 6.5727,4.99488 6.5545,5.30759 -0.018,0.31271 -34.77134,25.76856 -77.22924,56.56856 l -77.19618,56 48.88862,0.5 48.88863,0.5 2.77184,8.25 2.77184,8.25 -77.56605,0 c -75.57427,0 -77.50482,-0.0473 -75.1812,-1.844 z m 184.46698,-5.90941 c -1.42017,-4.26437 -2.58212,-8.08711 -2.58212,-8.49498 0,-0.40786 43.07708,-0.85632 95.72678,-0.99659 l 95.7267,-0.25502 -38.9767,-28.32279 c -21.4372,-15.57754 -39.0992,-28.85254 -39.2488,-29.5 -0.3839,-1.66152 4.0937,-14.59435 5.1196,-14.78697 0.6775,-0.12722 56.1951,39.81705 116.1329,83.55631 l 8.9805,6.55345 -119.1484,0 -119.14834,0 -2.58212,-7.75341 z m 68.41786,-17.86722 c 0,-0.82673 58.0841,-179.66673 58.6653,-180.62937 1.5116,-2.50391 -5.2375,2.12708 -40.2256,27.60141 l -38.9397,28.35142 -4,-2.85251 c -2.2,-1.56889 -5.3085,-3.90132 -6.9079,-5.1832 l -2.9079,-2.33069 61.9079,-45.02301 c 34.0494,-24.76265 62.0475,-44.91131 62.218,-44.77479 0.2544,0.20363 -52.1692,162.36636 -68.4416,211.71137 l -4.5343,13.75 -8.4171,0 c -4.6294,0 -8.4171,-0.27928 -8.4171,-0.62063 z M 1000.8959,542.2531 c -42.32865,-30.7793 -77.34271,-55.96236 -77.809,-55.96236 -0.4663,0 -0.64561,0.3375 -0.39846,0.75 0.52448,0.87539 29.66868,90.62644 29.66868,91.3662 0,0.93339 -13.09798,10.11915 -13.64661,9.57052 -0.73041,-0.73041 -47.54861,-144.84088 -47.1584,-145.15763 0.16776,-0.13616 42.60501,30.52166 94.30501,68.12852 51.69998,37.60685 94.85388,68.95525 95.89748,69.66311 1.8455,1.25179 1.8227,1.51143 -0.8322,9.48315 -1.5012,4.50787 -2.8051,8.17919 -2.8974,8.15849 -0.092,-0.0207 -34.8004,-25.2207 -77.1291,-56 z M 886.09793,428.67137 c -4.26756,-3.04803 -7.4755,-6.0009 -7.12876,-6.56193 1.16773,-1.88943 17.79509,-12.12525 29.88795,-18.39905 60.41846,-31.34524 132.32398,-36.42438 196.49998,-13.88002 18.5503,6.51651 56.2431,26.22868 60.913,31.85556 0.9535,1.1489 -0.297,2.44238 -6.774,7.00691 -4.3689,3.07884 -8.2276,5.5979 -8.5748,5.5979 -0.3472,0 -5.2287,-2.77773 -10.8477,-6.17273 -71.6181,-43.27134 -163.38121,-43.04204 -235.43949,0.58832 -5.07265,3.07142 -9.57265,5.56697 -10,5.54566 -0.42734,-0.0213 -4.26863,-2.53259 -8.53618,-5.58062 z"
         id="path3357"
         inkscape:connector-curvature="0" />
    </g>
    <g
       transform="matrix(1.8662995,0,0,1.2403756,-202.331,498.85334)"
       style="font-style:normal;font-variant:normal;font-weight:normal;font-stretch:normal;font-size:60px;line-height:125%;font-family:Stencil;-inkscape-font-specification:Stencil;letter-spacing:0px;word-spacing:0px;fill:#214254;fill-opacity:1;stroke:none;stroke-width:1px;stroke-linecap:butt;stroke-linejoin:miter;stroke-opacity:1"
       id="flowRoot3341">
      <path
         d="m 132.14062,400.92676 0,3.54492 q -1.72851,0.26367 -2.57812,1.52344 -0.84961,1.25976 -0.84961,3.60351 l 0,24.19922 0,1.25977 q 0,0.67383 0.26367,1.43554 0.29297,0.73243 0.73242,1.25977 0.46875,0.58594 0.9961,0.84961 0.52734,0.23437 1.43554,0.32226 l 0,3.57422 q -5.68359,0 -9.87304,-2.95898 -3.69141,-2.60742 -5.56641,-7.00195 -1.875,-4.42383 -1.875,-10.45899 0,-4.42383 1.20117,-8.23242 1.23047,-3.83789 3.54493,-6.65039 2.34375,-2.8418 5.5957,-4.57031 3.28125,-1.72852 6.29883,-1.72852 l 0.67382,0.0293 z m 2.31446,3.57422 0,-3.54493 q 1.43554,0.23438 2.31445,0.49805 0.9082,0.26367 3.25195,1.11328 1.49414,0.52735 1.99219,0.52735 0.84961,0 1.28906,-0.76172 l 0.38086,-0.70313 q 0.35157,-0.70312 1.31836,-0.70312 0.79102,0 1.20117,0.46875 0.43946,0.46875 0.43946,1.37695 l 0,12.1875 q 0,1.17188 -0.52735,1.69922 -0.52734,0.52734 -1.20117,0.52734 -0.70312,0 -1.14258,-0.43945 -0.41015,-0.46875 -0.67382,-1.49414 -0.61524,-2.31445 -1.20118,-3.63281 -1.25976,-2.78321 -2.87109,-4.51172 -1.08398,-1.17188 -2.16797,-1.78711 -1.08398,-0.64453 -2.40234,-0.82031 z m 0.0879,37.99804 0,-3.57422 q 2.28515,-0.17578 4.80469,-1.72851 1.34765,-0.84961 2.40234,-2.25586 1.05469,-1.43555 1.58203,-3.13477 0.29297,-0.9375 0.67383,-1.31836 0.41016,-0.41015 1.05469,-0.41015 0.70312,0 1.17187,0.52734 0.46875,0.52735 0.46875,1.31836 0,1.31836 -1.02539,3.19336 -0.99609,1.875 -2.57812,3.45703 -1.9336,1.9336 -3.98438,2.8711 -2.02148,0.9375 -4.57031,1.05468 z"
         style="font-style:normal;font-variant:normal;font-weight:normal;font-stretch:normal;font-size:60px;font-family:Stencil;-inkscape-font-specification:Stencil;text-align:center;text-anchor:middle;fill:#214254;fill-opacity:1"
         id="path4150" />
      <path
         d="m 164.57227,400.92676 0,3.36914 q -1.81641,0.49805 -2.78321,1.55273 -0.9375,1.02539 -0.9375,2.54883 0,1.46484 0.79102,2.57813 0.79101,1.08398 2.57812,2.08007 1.23047,0.67383 5.56641,2.57813 2.63672,1.14258 4.07226,2.08008 1.46485,0.9082 2.75391,2.28515 3.45703,3.63282 3.45703,8.64258 0,3.7793 -1.875,6.91406 -1.875,3.13477 -5.15625,4.92188 -1.75781,0.9375 -3.86719,1.46484 -2.08007,0.55664 -3.89648,0.55664 l 0,-3.33984 q 2.54883,-0.61523 3.66211,-1.69922 1.14258,-1.11328 1.14258,-2.98828 0,-1.96289 -1.75781,-3.45703 -1.17188,-0.9668 -4.45313,-2.40235 -3.60352,-1.58203 -4.95117,-2.25585 -1.31836,-0.67383 -2.54883,-1.58204 -5.50781,-3.92578 -5.50781,-10.45898 0,-3.33984 1.37695,-6.15234 1.37695,-2.8418 3.83789,-4.57032 3.42774,-2.40234 8.4961,-2.66601 z m 2.31445,3.36914 0,-3.22266 q 1.75781,0.11719 3.04687,0.46875 1.28907,0.32227 3.66211,1.31836 0.58594,0.23438 0.9668,0.23438 0.55664,0 0.82031,-0.38086 l 0.64453,-0.84961 q 0.46875,-0.64453 1.14258,-0.64453 0.79102,0 1.14258,0.58593 0.38086,0.55664 0.38086,1.78711 l 0,9.66797 q 0,0.84961 -0.49805,1.40625 -0.46875,0.52735 -1.23047,0.52735 -0.58593,0 -1.08398,-0.38086 -0.26367,-0.23438 -0.43945,-0.55664 -0.14649,-0.35157 -0.29297,-1.14258 -0.32227,-1.43555 -1.11328,-2.95899 -0.79102,-1.52343 -1.84571,-2.72461 -2.10937,-2.37304 -5.30273,-3.13476 z m -3.83789,34.86328 0,3.33984 q -2.40235,0 -5.30274,-1.37695 -1.08398,-0.49805 -1.49414,-0.64453 -0.41015,-0.14649 -0.79101,-0.14649 -0.58594,0 -0.87891,0.20508 -0.29297,0.17578 -0.9375,0.9375 -0.52734,0.64453 -1.14258,0.64453 -1.64062,0 -1.64062,-2.51953 l 0,-10.66406 q 0,-0.82031 0.46875,-1.37695 0.46875,-0.58594 1.17187,-0.61524 0.64453,-0.0293 0.9961,0.38086 0.38086,0.38086 0.64453,1.37696 0.67383,2.51953 1.93359,4.71679 1.28906,2.19727 2.98828,3.72071 1.72852,1.58203 3.98438,2.02148 z"
         style="font-style:normal;font-variant:normal;font-weight:normal;font-stretch:normal;font-size:60px;font-family:Stencil;-inkscape-font-specification:Stencil;text-align:center;text-anchor:middle;fill:#214254;fill-opacity:1"
         id="path4152" />
      <path
         d="m 206.34961,423.36816 0,12.77344 q 0,1.14258 0.43945,1.64063 0.23438,0.29297 0.43946,0.38086 0.20507,0.0586 1.34765,0.35156 1.40625,0.32226 1.40625,1.61133 0,0.84961 -0.79101,1.28906 -0.46875,0.29297 -1.81641,0.29297 l -0.99609,0 -13.06641,0 -0.9668,0 q -1.31836,0 -1.8457,-0.35156 -0.76172,-0.46875 -0.76172,-1.23047 0,-1.28907 1.40625,-1.61133 1.14258,-0.29297 1.34766,-0.35156 0.20508,-0.0879 0.41015,-0.38086 0.43946,-0.49805 0.43946,-1.64063 l 0,-9.90234 -8.29102,-19.77539 q -0.46875,-1.11328 -1.31836,-1.61133 -0.79101,-0.49805 -1.02539,-0.79102 -0.20508,-0.29297 -0.20508,-0.82031 0,-1.52344 2.22657,-1.52344 l 14.35546,0 q 1.14258,0 1.58204,0.26368 0.73242,0.46875 0.73242,1.23046 0,0.9375 -0.84961,1.46485 l -0.84961,0.52734 q -0.49805,0.32227 -0.49805,0.9668 0,0.73242 0.32227,1.43555 l 6.82617,15.76171 z m 1.14258,-2.7832 -1.64063,-3.83789 3.07617,-6.88477 q 0.38086,-0.8789 0.38086,-2.40234 0,-1.69922 -1.875,-2.43164 -1.02539,-0.41016 -1.34765,-0.70312 -0.29297,-0.32227 -0.29297,-0.9668 0,-0.79102 0.52734,-1.20117 0.35156,-0.26368 0.79102,-0.35157 0.43945,-0.0879 1.52344,-0.0879 l 7.23632,0 q 2.05078,0 2.05078,1.64063 0,0.58594 -0.29296,0.9082 -0.26368,0.32227 -1.05469,0.67383 -1.43555,0.64453 -2.05078,1.28906 -0.87891,0.9375 -1.46485,2.13867 l -0.67382,1.49414 -4.89258,10.72266 z"
         style="font-style:normal;font-variant:normal;font-weight:normal;font-stretch:normal;font-size:60px;font-family:Stencil;-inkscape-font-specification:Stencil;text-align:center;text-anchor:middle;fill:#214254;fill-opacity:1"
         id="path4154" />
      <path
         d="m 237.14062,401.71777 15.58594,27.07032 0,12.91992 -7.99804,0 -19.89258,-34.27735 q -0.64453,-1.11328 -1.05469,-1.55273 -0.41016,-0.43945 -1.05469,-0.64453 l -1.11328,-0.41016 q -0.43945,-0.14648 -0.70312,-0.52734 -0.26368,-0.38086 -0.26368,-0.84961 0,-0.49805 0.26368,-0.9082 0.26367,-0.43946 0.70312,-0.61524 0.49805,-0.20508 2.69531,-0.20508 l 12.83203,0 z m -12.27539,10.28321 3.10547,5.15625 0,15.70312 q 0,2.05078 0.67383,3.36914 0.70313,1.31836 2.19727,2.16797 l 0.8789,0.49805 q 0.76172,0.43945 0.76172,1.31836 0,0.67383 -0.55664,1.11328 -0.46875,0.38086 -1.93359,0.38086 l -6.76758,0 q -2.66602,0 -2.66602,-1.52344 0,-0.52734 0.26368,-0.82031 0.29296,-0.32227 1.23046,-0.84961 2.8125,-1.55274 2.8125,-5.6543 l 0,-20.85937 z m 27.86133,12.09961 -3.10547,-5.24414 0,-8.11524 q 0,-2.46094 -0.73242,-3.75 -0.70312,-1.31836 -2.51953,-2.25586 -0.61523,-0.29297 -0.84961,-0.61523 -0.23437,-0.35157 -0.23437,-0.87891 0,-0.79101 0.49804,-1.14258 0.52735,-0.38086 1.66992,-0.38086 l 7.32422,0 q 1.49414,0 1.96289,0.46875 0.49805,0.46875 0.49805,1.11328 0,0.61524 -0.29297,0.9375 -0.26367,0.29297 -1.31836,0.82032 -1.55273,0.79101 -2.34375,2.43164 -0.55664,1.20117 -0.55664,3.25195 l 0,13.35938 z"
         style="font-style:normal;font-variant:normal;font-weight:normal;font-stretch:normal;font-size:60px;font-family:Stencil;-inkscape-font-specification:Stencil;text-align:center;text-anchor:middle;fill:#214254;fill-opacity:1"
         id="path4156" />
      <path
         d="m 282.75586,401.71777 0,34.42383 q 0,1.14258 0.43945,1.64063 0.23438,0.29297 0.43946,0.38086 0.20507,0.0586 1.34765,0.35156 1.40625,0.32226 1.40625,1.61133 0,0.76172 -0.76172,1.23047 -0.55664,0.35156 -1.875,0.35156 l -0.96679,0 -13.06641,0 -0.9668,0 q -1.28906,0 -1.96289,-0.38086 -0.64453,-0.41016 -0.64453,-1.20117 0,-1.28907 1.40625,-1.61133 1.14258,-0.29297 1.34766,-0.35156 0.20508,-0.0879 0.41015,-0.38086 0.43946,-0.49805 0.43946,-1.64063 l 0,-34.42383 13.00781,0 z m 10.13672,0 0,11.98243 q 0,0.8496 -0.49805,1.37695 -0.46875,0.52734 -1.23047,0.52734 -0.73242,0 -1.23047,-0.46875 -0.46875,-0.49804 -0.61523,-1.34765 l -0.29297,-1.78711 q -0.43945,-2.72461 -1.69922,-4.7168 -0.79101,-1.23047 -2.13867,-2.02148 l 0,-3.54493 7.70508,0 z m -33.22266,0 7.70508,0 0,3.54493 q -1.37695,0.79101 -2.13867,2.02148 -1.25977,1.99219 -1.69922,4.7168 l -0.29297,1.78711 q -0.14648,0.84961 -0.64453,1.34765 -0.46875,0.46875 -1.20117,0.46875 -0.76172,0 -1.25977,-0.52734 -0.46875,-0.52735 -0.46875,-1.37695 l 0,-11.98243 z"
         style="font-style:normal;font-variant:normal;font-weight:normal;font-stretch:normal;font-size:60px;font-family:Stencil;-inkscape-font-specification:Stencil;text-align:center;text-anchor:middle;fill:#214254;fill-opacity:1"
         id="path4158" />
      <path
         d="m 308.24414,401.71777 11.80664,0 8.14453,34.42383 q 0.23438,0.9082 0.52735,1.61133 0.26367,0.55664 1.17187,0.9082 0.76172,0.32227 1.05469,0.64453 0.29297,0.32227 0.29297,0.87891 0,1.52344 -2.28516,1.52344 l -14.61914,0 q -0.87891,0 -1.40625,-0.41016 -0.52734,-0.43945 -0.52734,-1.14258 0,-0.58593 0.23437,-0.8789 0.23438,-0.29297 1.05469,-0.73242 0.58594,-0.29297 0.82031,-0.64454 0.23438,-0.35156 0.23438,-0.8789 0,-0.49805 -0.0879,-0.87891 l -0.9375,-4.24805 -8.17383,0 0.79101,-3.48632 6.5625,0 -5.39062,-23.81836 0.73242,-2.8711 z m -2.02148,7.44141 1.49414,6.06445 -5.18555,18.92578 q -0.23438,0.82032 -0.23438,1.52344 0,1.8457 1.72852,2.63672 l 1.02539,0.46875 q 0.9668,0.43945 0.9668,1.46484 0,1.46485 -2.13867,1.46485 l -7.44141,0 q -1.08398,0 -1.72852,-0.43946 -0.61523,-0.46875 -0.61523,-1.25976 0,-0.84961 1.28906,-1.40625 1.20117,-0.52734 1.75781,-0.9375 0.58594,-0.43945 1.11329,-1.17188 0.82031,-1.20117 1.34765,-3.19336 l 6.6211,-24.14062 z"
         style="font-style:normal;font-variant:normal;font-weight:normal;font-stretch:normal;font-size:60px;font-family:Stencil;-inkscape-font-specification:Stencil;text-align:center;text-anchor:middle;fill:#214254;fill-opacity:1"
         id="path4160" />
      <path
         d="m 349.61133,406.84473 14.73633,29.9707 q 0.52734,1.02539 1.43554,1.49414 0.79102,0.41016 1.05469,0.76172 0.29297,0.35156 0.29297,0.9668 0,0.79101 -0.58594,1.25976 -0.49805,0.41016 -2.10937,0.41016 l -13.74024,0 q -1.58203,0 -2.05078,-0.20508 -1.02539,-0.43945 -1.02539,-1.49414 0,-0.38086 0.20508,-0.64453 0.20508,-0.29297 0.76172,-0.70313 0.99609,-0.73242 0.96679,-1.34765 -0.0293,-0.49805 -0.52734,-1.49414 l -14.38477,-28.97461 q -0.35156,-0.73243 -0.76171,-1.14258 -0.41016,-0.43945 -1.08399,-0.79102 -0.58594,-0.29297 -0.82031,-0.64453 -0.20508,-0.35156 -0.20508,-0.9668 0,-0.8789 0.61524,-1.23046 0.64453,-0.35157 2.25585,-0.35157 l 13.65235,0 q 1.49414,0 2.13867,0.38086 0.67383,0.38086 0.67383,1.23047 0,0.84961 -0.9668,1.49414 -0.43945,0.32227 -0.61523,0.55664 -0.14649,0.20508 -0.14649,0.58594 0,0.41016 0.23438,0.87891 z m 6.59179,8.11523 -1.64062,-3.25195 1.64062,-2.78321 q 0.55665,-0.96679 0.55665,-1.66992 0,-0.64453 -0.41016,-1.25976 -0.38086,-0.61524 -1.02539,-0.90821 l -1.02539,-0.46875 q -0.29297,-0.14648 -0.52735,-0.55664 -0.20507,-0.41015 -0.20507,-0.82031 0,-0.70312 0.49804,-1.11328 0.49805,-0.41016 1.31836,-0.41016 l 8.4668,0 q 0.82031,0 1.34766,0.38086 0.55664,0.35157 0.55664,0.9375 0,0.70313 -0.52735,1.23047 -0.20508,0.17578 -1.23047,0.73242 -2.08007,1.14258 -3.45703,3.31055 l -4.33594,6.65039 z m -13.82812,12.45117 1.61133,3.33985 -1.81641,2.95898 q -0.99609,1.64063 -0.99609,2.60742 0,1.40625 1.58203,2.05078 0.87891,0.35157 1.20117,0.70313 0.32227,0.35156 0.32227,0.9668 0,0.82031 -0.70313,1.34765 -0.26367,0.20508 -0.58594,0.26367 -0.32226,0.0586 -1.23046,0.0586 l -7.5586,0 q -0.9375,0 -1.49414,-0.38086 -0.52734,-0.41016 -0.52734,-1.11328 0,-0.55664 0.32226,-0.90821 0.35157,-0.38086 1.20117,-0.70312 2.19727,-0.84961 3.39844,-2.7832 l 5.27344,-8.40821 z"
         style="font-style:normal;font-variant:normal;font-weight:normal;font-stretch:normal;font-size:60px;font-family:Stencil;-inkscape-font-specification:Stencil;text-align:center;text-anchor:middle;fill:#214254;fill-opacity:1"
         id="path4162" />
    </g>
  </g>
</svg>
